ISO-10303-21;
HEADER;
FILE_DESCRIPTION (( 'STEP AP214' ),
    '1' );
FILE_NAME ('RFhold.STEP',
    '2026-06-24T00:21:26',
    ( '' ),
    ( '' ),
    'SwSTEP 2.0',
    'SolidWorks 2024',
    '' );
FILE_SCHEMA (( 'AUTOMOTIVE_DESIGN' ));
ENDSEC;

DATA;
#1 = DIRECTION ( 'NONE',  ( -0.000000000000000000, 1.000000000000000000, -0.000000000000000000 ) ) ;
#2 = AXIS2_PLACEMENT_3D ( 'NONE', #685, #202, #632 ) ;
#3 = CLOSED_SHELL ( 'NONE', ( #372, #484, #468, #620, #301, #339, #746, #509, #421, #107, #251, #255, #728, #163, #177, #698, #187, #201, #288, #241, #118 ) ) ;
#4 = ORIENTED_EDGE ( 'NONE', *, *, #304, .F. ) ;
#5 = CARTESIAN_POINT ( 'NONE',  ( 5.500000000000000000, 12.49999999999999822, 10.93999599679679235 ) ) ;
#6 = CARTESIAN_POINT ( 'NONE',  ( 4.727366787930888492, 10.92319461224374955, 6.077446186234558567 ) ) ;
#7 = DIRECTION ( 'NONE',  ( 0.000000000000000000, 1.000000000000000000, 0.000000000000000000 ) ) ;
#8 = VERTEX_POINT ( 'NONE', #645 ) ;
#9 = EDGE_CURVE ( 'NONE', #164, #273, #412, .T. ) ;
#10 = LINE ( 'NONE', #237, #575 ) ;
#11 = ORIENTED_EDGE ( 'NONE', *, *, #670, .F. ) ;
#12 = AXIS2_PLACEMENT_3D ( 'NONE', #613, #149, #137 ) ;
#13 = FACE_OUTER_BOUND ( 'NONE', #646, .T. ) ;
#14 = PLANE ( 'NONE',  #696 ) ;
#15 = EDGE_LOOP ( 'NONE', ( #619, #380, #18, #691, #766, #452, #49, #680 ) ) ;
#16 = CARTESIAN_POINT ( 'NONE',  ( 6.155629074925158761, -6.272761187071541400, 10.81260371553089783 ) ) ;
#17 = CYLINDRICAL_SURFACE ( 'NONE', #564, 3.249999999999997780 ) ;
#18 = ORIENTED_EDGE ( 'NONE', *, *, #530, .T. ) ;
#19 = CARTESIAN_POINT ( 'NONE',  ( 6.040594957761698858, -6.195004719928846271, 10.85707755992452839 ) ) ;
#20 = CARTESIAN_POINT ( 'NONE',  ( 11.00000000000000000, 0.5000000000000000000, 12.48999599679679839 ) ) ;
#21 = ORIENTED_EDGE ( 'NONE', *, *, #758, .F. ) ;
#22 = DIRECTION ( 'NONE',  ( 0.000000000000000000, 0.000000000000000000, 1.000000000000000000 ) ) ;
#23 = AXIS2_PLACEMENT_3D ( 'NONE', #418, #599, #439 ) ;
#24 = CARTESIAN_POINT ( 'NONE',  ( 4.642123780273866629, -6.442928990726831451, 10.71207640658893467 ) ) ;
#25 = ORIENTED_EDGE ( 'NONE', *, *, #245, .T. ) ;
#26 = CARTESIAN_POINT ( 'NONE',  ( 11.00000000000000000, 0.000000000000000000, 0.000000000000000000 ) ) ;
#27 = CARTESIAN_POINT ( 'NONE',  ( 3.824982227145000024, -8.027538604601209826, 9.585884670126278095 ) ) ;
#28 = ORIENTED_EDGE ( 'NONE', *, *, #217, .F. ) ;
#29 = EDGE_CURVE ( 'NONE', #555, #252, #196, .T. ) ;
#30 = CARTESIAN_POINT ( 'NONE',  ( 4.551255768278280378, -6.538228346823326653, 10.65435526312385406 ) ) ;
#31 = EDGE_LOOP ( 'NONE', ( #345, #204 ) ) ;
#32 = EDGE_CURVE ( 'NONE', #286, #431, #403, .T. ) ;
#33 = B_SPLINE_CURVE_WITH_KNOTS ( 'NONE', 3,
 ( #639, #41, #390, #268, #102, #518, #704, #210, #270, #44, #644, #695, #393, #579, #275, #105, #48, #281, #222, #426, #302, #716, #6, #422, #175, #307, #669, #364, #60, #171, #125, #545, #128, #662, #604, #357, #607, #720, #540, #361, #417, #413, #63, #772, #231, #71, #711, #595, #654, #115, #657, #235 ),
 .UNSPECIFIED., .F., .F.,
 ( 4, 2, 2, 2, 2, 2, 2, 2, 2, 2, 2, 2, 2, 2, 2, 2, 2, 2, 2, 2, 2, 2, 2, 2, 2, 4 ),
 ( 0.000000000000000000, 0.002254287035545038051, 0.002817858794431299732, 0.003381430553317560546, 0.004508574071090079571, 0.005072145829976341252, 0.005635717588862602934, 0.006199289347748864615, 0.006762861106635125429, 0.007326432865521387110, 0.007890004624407647923, 0.008453576383293911339, 0.009017148142180171286, 0.009580719901066434702, 0.01014429165995269465, 0.01070786341883895633, 0.01127143517772521801, 0.01183500693661147796, 0.01239857869549773964, 0.01296215045438400305, 0.01352572221327026300, 0.01465286573104279157, 0.01521643748992905672, 0.01578000924881532013, 0.01690715276658785390, 0.01803429628436038767 ),
 .UNSPECIFIED. ) ;
#34 = FACE_OUTER_BOUND ( 'NONE', #448, .T. ) ;
#35 = ORIENTED_EDGE ( 'NONE', *, *, #386, .T. ) ;
#36 = VECTOR ( 'NONE', #482, 1000.000000000000000 ) ;
#37 = VECTOR ( 'NONE', #641, 1000.000000000000000 ) ;
#38 = LINE ( 'NONE', #158, #70 ) ;
#39 = PRESENTATION_STYLE_ASSIGNMENT (( #536 ) ) ;
#40 = DIRECTION ( 'NONE',  ( 0.000000000000000000, 0.000000000000000000, -1.000000000000000000 ) ) ;
#41 = CARTESIAN_POINT ( 'NONE',  ( 2.585600979464504068, 6.444588418324280532, 10.73530492279424386 ) ) ;
#42 = CARTESIAN_POINT ( 'NONE',  ( 12.00000000000000000, 0.000000000000000000, 0.000000000000000000 ) ) ;
#43 = CARTESIAN_POINT ( 'NONE',  ( 5.500000000000000000, -0.5000000000000004441, 7.539995996796805322 ) ) ;
#44 = CARTESIAN_POINT ( 'NONE',  ( 2.418448031324945902, 9.438863860603461831, 8.197123033026050720 ) ) ;
#45 = DIRECTION ( 'NONE',  ( -0.000000000000000000, -0.000000000000000000, -1.000000000000000000 ) ) ;
#46 = VECTOR ( 'NONE', #227, 1000.000000000000000 ) ;
#47 = PLANE ( 'NONE',  #224 ) ;
#48 = CARTESIAN_POINT ( 'NONE',  ( 3.286489575139830421, 10.45436194865406065, 6.853778267797745016 ) ) ;
#49 = ORIENTED_EDGE ( 'NONE', *, *, #245, .F. ) ;
#50 = DIRECTION ( 'NONE',  ( -0.000000000000000000, 1.000000000000000000, -0.000000000000000000 ) ) ;
#51 = EDGE_CURVE ( 'NONE', #409, #558, #266, .T. ) ;
#52 = CARTESIAN_POINT ( 'NONE',  ( 20.00000000000000000, -0.5000000000000000000, 12.48999599679679839 ) ) ;
#53 = SURFACE_SIDE_STYLE ('',( #527 ) ) ;
#54 = ORIENTED_EDGE ( 'NONE', *, *, #472, .T. ) ;
#55 = CARTESIAN_POINT ( 'NONE',  ( 5.500000000000000000, -9.969877650617794629, 7.539995996796805322 ) ) ;
#56 = UNCERTAINTY_MEASURE_WITH_UNIT (LENGTH_MEASURE( 1.000000000000000082E-05 ), #480, 'distance_accuracy_value', 'NONE');
#57 = CARTESIAN_POINT ( 'NONE',  ( 0.000000000000000000, 0.5000000000000000000, 0.000000000000000000 ) ) ;
#58 = CARTESIAN_POINT ( 'NONE',  ( 20.00000000000000000, 1.530808498934191521E-15, -12.50000000000000000 ) ) ;
#59 = CARTESIAN_POINT ( 'NONE',  ( 11.00000000000000000, 3.999999999999997335, -4.472135954999581386 ) ) ;
#60 = CARTESIAN_POINT ( 'NONE',  ( 6.425213033578482502, 10.90032423860514577, 6.118695481096763089 ) ) ;
#61 = EDGE_CURVE ( 'NONE', #718, #684, #223, .T. ) ;
#62 = ORIENTED_EDGE ( 'NONE', *, *, #690, .F. ) ;
#63 = CARTESIAN_POINT ( 'NONE',  ( 8.739264337745339617, 8.817281393349801988, 8.868581462783728497 ) ) ;
#64 = EDGE_CURVE ( 'NONE', #574, #464, #106, .T. ) ;
#65 = CARTESIAN_POINT ( 'NONE',  ( 12.00000000000000000, 4.000000000000000000, 0.000000000000000000 ) ) ;
#66 = EDGE_LOOP ( 'NONE', ( #571, #323 ) ) ;
#67 = CARTESIAN_POINT ( 'NONE',  ( 11.00000000000000000, 0.5000000000000000000, 5.979130371550700040 ) ) ;
#68 = DIRECTION ( 'NONE',  ( 0.000000000000000000, 0.000000000000000000, 1.000000000000000000 ) ) ;
#69 = EDGE_LOOP ( 'NONE', ( #78, #371 ) ) ;
#70 = VECTOR ( 'NONE', #347, 1000.000000000000000 ) ;
#71 = CARTESIAN_POINT ( 'NONE',  ( 8.728188293357030503, 7.964753121010877734, 9.635817443912376490 ) ) ;
#72 =( NAMED_UNIT ( * ) PLANE_ANGLE_UNIT ( ) SI_UNIT ( $, .RADIAN. ) );
#73 = AXIS2_PLACEMENT_3D ( 'NONE', #612, #621, #95 ) ;
#74 = ORIENTED_EDGE ( 'NONE', *, *, #112, .T. ) ;
#75 = EDGE_CURVE ( 'NONE', #574, #385, #708, .T. ) ;
#76 = DIRECTION ( 'NONE',  ( 1.000000000000000000, 0.000000000000000000, 0.000000000000000000 ) ) ;
#77 = CARTESIAN_POINT ( 'NONE',  ( 5.213695920213563539, -9.955987473176895364, 7.558453611062992294 ) ) ;
#78 = ORIENTED_EDGE ( 'NONE', *, *, #640, .T. ) ;
#79 = CARTESIAN_POINT ( 'NONE',  ( 20.00000000000000000, 5.799999999999998046, 11.07293998900021315 ) ) ;
#80 = CARTESIAN_POINT ( 'NONE',  ( 4.020543048102554806, -7.374128595278265585, 10.09688234545260599 ) ) ;
#81 = ORIENTED_EDGE ( 'NONE', *, *, #314, .F. ) ;
#82 = CARTESIAN_POINT ( 'NONE',  ( 6.539980570402736504, -9.714002992907946776, 7.868566106577226549 ) ) ;
#83 = CIRCLE ( 'NONE', #525, 2.500000000000000000 ) ;
#84 = DIRECTION ( 'NONE',  ( 0.000000000000000000, 0.000000000000000000, -1.000000000000000000 ) ) ;
#85 = EDGE_CURVE ( 'NONE', #454, #244, #757, .T. ) ;
#86 = EDGE_LOOP ( 'NONE', ( #532, #236, #475, #262 ) ) ;
#87 = CARTESIAN_POINT ( 'NONE',  ( 4.577274591000842108, -9.763357350104566734, 7.805981003666047080 ) ) ;
#88 = ORIENTED_EDGE ( 'NONE', *, *, #584, .F. ) ;
#89 = PLANE ( 'NONE',  #748 ) ;
#90 = AXIS2_PLACEMENT_3D ( 'NONE', #703, #165, #110 ) ;
#91 = ORIENTED_EDGE ( 'NONE', *, *, #85, .T. ) ;
#92 = MECHANICAL_DESIGN_GEOMETRIC_PRESENTATION_REPRESENTATION (  '', ( #122 ), #392 ) ;
#93 = DIRECTION ( 'NONE',  ( 0.000000000000000000, 0.000000000000000000, -1.000000000000000000 ) ) ;
#94 = DIRECTION ( 'NONE',  ( 1.000000000000000000, 0.000000000000000000, 0.000000000000000000 ) ) ;
#95 = DIRECTION ( 'NONE',  ( 0.000000000000000000, 0.000000000000000000, -1.000000000000000000 ) ) ;
#96 = VECTOR ( 'NONE', #433, 1000.000000000000000 ) ;
#97 = VECTOR ( 'NONE', #596, 1000.000000000000000 ) ;
#98 = VECTOR ( 'NONE', #155, 1000.000000000000000 ) ;
#99 = LINE ( 'NONE', #634, #488 ) ;
#100 = CARTESIAN_POINT ( 'NONE',  ( 8.183806312207606126, 5.799999999999998934, 11.07293998900021315 ) ) ;
#101 = CARTESIAN_POINT ( 'NONE',  ( 7.210119527269331918, -8.454005926704223128, 9.211964073492064031 ) ) ;
#102 = CARTESIAN_POINT ( 'NONE',  ( 2.273683690650795342, 7.946817541158614162, 9.650601785852296999 ) ) ;
#103 = DIRECTION ( 'NONE',  ( 0.000000000000000000, 0.000000000000000000, 1.000000000000000000 ) ) ;
#104 = ORIENTED_EDGE ( 'NONE', *, *, #761, .F. ) ;
#105 = CARTESIAN_POINT ( 'NONE',  ( 3.163153532969316117, 10.37423429613351544, 6.974920013178194544 ) ) ;
#106 = LINE ( 'NONE', #714, #516 ) ;
#107 = ADVANCED_FACE ( 'NONE', ( #651 ), #173, .T. ) ;
#108 = VECTOR ( 'NONE', #592, 1000.000000000000000 ) ;
#109 = EDGE_LOOP ( 'NONE', ( #321, #225, #734, #492 ) ) ;
#110 = DIRECTION ( 'NONE',  ( 0.000000000000000000, 0.000000000000000000, 1.000000000000000000 ) ) ;
#111 = CARTESIAN_POINT ( 'NONE',  ( 5.151422777940202202, -6.109702052668799510, 10.90516327134060681 ) ) ;
#112 = EDGE_CURVE ( 'NONE', #558, #8, #113, .T. ) ;
#113 = LINE ( 'NONE', #635, #398 ) ;
#114 = CARTESIAN_POINT ( 'NONE',  ( 0.000000000000000000, 1.530808498934191521E-15, -12.50000000000000000 ) ) ;
#115 = CARTESIAN_POINT ( 'NONE',  ( 8.402818820849647707, 6.443445768672583007, 10.71772517372271771 ) ) ;
#116 = LINE ( 'NONE', #65, #661 ) ;
#117 =( NAMED_UNIT ( * ) SI_UNIT ( $, .STERADIAN. ) SOLID_ANGLE_UNIT ( ) );
#118 = ADVANCED_FACE ( 'NONE', ( #337 ), #583, .F. ) ;
#119 = CARTESIAN_POINT ( 'NONE',  ( 5.500000000000000000, -0.5000000000000004441, 9.239995996796798394 ) ) ;
#120 = FILL_AREA_STYLE ('',( #430 ) ) ;
#121 = ORIENTED_EDGE ( 'NONE', *, *, #359, .T. ) ;
#122 = STYLED_ITEM ( 'NONE', ( #487 ), #201 ) ;
#123 = DIRECTION ( 'NONE',  ( 0.000000000000000000, 0.000000000000000000, 1.000000000000000000 ) ) ;
#124 = EDGE_CURVE ( 'NONE', #360, #755, #160, .T. ) ;
#125 = CARTESIAN_POINT ( 'NONE',  ( 6.950727396412663239, 10.78160273704627059, 6.325994512390654023 ) ) ;
#126 = SURFACE_SIDE_STYLE ('',( #671 ) ) ;
#127 = ORIENTED_EDGE ( 'NONE', *, *, #617, .T. ) ;
#128 = CARTESIAN_POINT ( 'NONE',  ( 7.419699378307313076, 10.60922607890260672, 6.611517746439642629 ) ) ;
#129 = DIRECTION ( 'NONE',  ( -0.000000000000000000, 1.000000000000000000, -0.000000000000000000 ) ) ;
#130 = MANIFOLD_SOLID_BREP ( 'M3 \X2\c721ac01\X0\ \X2\c18ccf13\X0\ \X2\ba38b9ac\X0\ \X2\cea1\X0\ \X2\b098c0acc6a9\X0\ \X2\ce74c6b4d130bcf4c5b4\X0\1', #3 ) ;
#131 = EDGE_LOOP ( 'NONE', ( #391, #257, #419, #146 ) ) ;
#132 = DIRECTION ( 'NONE',  ( 1.000000000000000000, 0.000000000000000000, 0.000000000000000000 ) ) ;
#133 = LINE ( 'NONE', #549, #36 ) ;
#134 = ORIENTED_EDGE ( 'NONE', *, *, #425, .T. ) ;
#135 = SHAPE_DEFINITION_REPRESENTATION ( #191, #750 ) ;
#136 = CARTESIAN_POINT ( 'NONE',  ( 20.00000000000000000, 0.000000000000000000, 0.000000000000000000 ) ) ;
#137 = DIRECTION ( 'NONE',  ( 0.000000000000000000, 0.000000000000000000, 1.000000000000000000 ) ) ;
#138 = VERTEX_POINT ( 'NONE', #100 ) ;
#139 = AXIS2_PLACEMENT_3D ( 'NONE', #284, #94, #469 ) ;
#140 = CARTESIAN_POINT ( 'NONE',  ( 12.00000000000000000, 3.999999999999996447, -11.84271928232701221 ) ) ;
#141 = CARTESIAN_POINT ( 'NONE',  ( 4.121691900485317639, -7.154315042060499508, 10.25326809572806575 ) ) ;
#142 = EDGE_LOOP ( 'NONE', ( #247, #656, #715, #342 ) ) ;
#143 = CARTESIAN_POINT ( 'NONE',  ( 7.174974196174100705, -8.027332691728997105, 9.586053836504241588 ) ) ;
#144 = EDGE_CURVE ( 'NONE', #385, #360, #414, .T. ) ;
#145 = CARTESIAN_POINT ( 'NONE',  ( 4.812422474400346317, -9.863129616117884524, 7.679528654227041784 ) ) ;
#146 = ORIENTED_EDGE ( 'NONE', *, *, #197, .T. ) ;
#147 = CARTESIAN_POINT ( 'NONE',  ( 7.005518476473215017, -9.244868677378292432, 8.416897034974821779 ) ) ;
#148 = AXIS2_PLACEMENT_3D ( 'NONE', #463, #153, #93 ) ;
#149 = DIRECTION ( 'NONE',  ( 0.000000000000000000, 1.000000000000000000, 0.000000000000000000 ) ) ;
#150 = EDGE_LOOP ( 'NONE', ( #62, #279, #178, #415 ) ) ;
#151 = FACE_OUTER_BOUND ( 'NONE', #190, .T. ) ;
#152 = ORIENTED_EDGE ( 'NONE', *, *, #565, .F. ) ;
#153 = DIRECTION ( 'NONE',  ( 1.000000000000000000, 0.000000000000000000, 0.000000000000000000 ) ) ;
#154 = VERTEX_POINT ( 'NONE', #721 ) ;
#155 = DIRECTION ( 'NONE',  ( -1.000000000000000000, -0.000000000000000000, -0.000000000000000000 ) ) ;
#156 = VERTEX_POINT ( 'NONE', #730 ) ;
#157 = DIRECTION ( 'NONE',  ( 0.000000000000000000, 0.000000000000000000, -1.000000000000000000 ) ) ;
#158 = CARTESIAN_POINT ( 'NONE',  ( 12.00000000000000000, 3.999999999999999112, -4.472135954999582275 ) ) ;
#159 = DIRECTION ( 'NONE',  ( 0.000000000000000000, 0.000000000000000000, 1.000000000000000000 ) ) ;
#160 = CIRCLE ( 'NONE', #296, 12.50000000000000000 ) ;
#161 = FACE_OUTER_BOUND ( 'NONE', #508, .T. ) ;
#162 = DIRECTION ( 'NONE',  ( 1.000000000000000000, 0.000000000000000000, 0.000000000000000000 ) ) ;
#163 = ADVANCED_FACE ( 'NONE', ( #732 ), #547, .T. ) ;
#164 = VERTEX_POINT ( 'NONE', #58 ) ;
#165 = DIRECTION ( 'NONE',  ( -1.000000000000000000, -0.000000000000000000, -0.000000000000000000 ) ) ;
#166 = PLANE ( 'NONE',  #623 ) ;
#167 = DIRECTION ( 'NONE',  ( -1.000000000000000000, -0.000000000000000000, -0.000000000000000000 ) ) ;
#168 = ORIENTED_EDGE ( 'NONE', *, *, #32, .F. ) ;
#169 = DIRECTION ( 'NONE',  ( 0.000000000000000000, -0.000000000000000000, 1.000000000000000000 ) ) ;
#170 = AXIS2_PLACEMENT_3D ( 'NONE', #351, #490, #553 ) ;
#171 = CARTESIAN_POINT ( 'NONE',  ( 6.782310380562424967, 10.82693598042720673, 6.247636366886874626 ) ) ;
#172 = AXIS2_PLACEMENT_3D ( 'NONE', #769, #407, #103 ) ;
#173 = CYLINDRICAL_SURFACE ( 'NONE', #753, 2.500000000000000000 ) ;
#174 = FACE_OUTER_BOUND ( 'NONE', #150, .T. ) ;
#175 = CARTESIAN_POINT ( 'NONE',  ( 5.290943291311158703, 10.97073809436617076, 5.991068939028881601 ) ) ;
#176 = DIRECTION ( 'NONE',  ( 0.000000000000000000, 0.000000000000000000, 1.000000000000000000 ) ) ;
#177 = ADVANCED_FACE ( 'NONE', ( #427 ), #483, .T. ) ;
#178 = ORIENTED_EDGE ( 'NONE', *, *, #556, .F. ) ;
#179 = DIRECTION ( 'NONE',  ( 0.000000000000000000, 0.000000000000000000, 1.000000000000000000 ) ) ;
#180 = DIRECTION ( 'NONE',  ( 0.000000000000000000, 0.000000000000000000, 1.000000000000000000 ) ) ;
#181 = SURFACE_STYLE_USAGE ( .BOTH. , #126 ) ;
#182 = AXIS2_PLACEMENT_3D ( 'NONE', #760, #535, #576 ) ;
#183 = LINE ( 'NONE', #269, #332 ) ;
#184 = CARTESIAN_POINT ( 'NONE',  ( 20.00000000000000000, 3.061616997868383141E-16, -2.500000000000000000 ) ) ;
#185 = EDGE_LOOP ( 'NONE', ( #317, #4 ) ) ;
#186 = CARTESIAN_POINT ( 'NONE',  ( 12.00000000000000000, 3.999999999999999112, -4.472135954999582275 ) ) ;
#187 = ADVANCED_FACE ( 'NONE', ( #291, #554 ), #14, .F. ) ;
#188 = AXIS2_PLACEMENT_3D ( 'NONE', #349, #719, #179 ) ;
#189 = DIRECTION ( 'NONE',  ( -0.000000000000000000, 1.000000000000000000, -0.000000000000000000 ) ) ;
#190 = EDGE_LOOP ( 'NONE', ( #569, #305 ) ) ;
#191 = PRODUCT_DEFINITION_SHAPE ( 'NONE', 'NONE',  #681 ) ;
#192 = DIRECTION ( 'NONE',  ( 1.000000000000000000, 0.000000000000000000, 0.000000000000000000 ) ) ;
#193 = CARTESIAN_POINT ( 'NONE',  ( 4.281873934773655854, -9.565455996071332123, 8.047583174050254584 ) ) ;
#194 = CIRCLE ( 'NONE', #752, 12.50000000000000000 ) ;
#195 = VERTEX_POINT ( 'NONE', #666 ) ;
#196 = CIRCLE ( 'NONE', #172, 1.699999999999993072 ) ;
#197 = EDGE_CURVE ( 'NONE', #551, #440, #538, .T. ) ;
#198 = CARTESIAN_POINT ( 'NONE',  ( 5.645043582710131957, -6.047023035351379860, 10.93999599679679591 ) ) ;
#199 = FACE_OUTER_BOUND ( 'NONE', #548, .T. ) ;
#200 = ORIENTED_EDGE ( 'NONE', *, *, #408, .F. ) ;
#201 = ADVANCED_FACE ( 'NONE', ( #491 ), #17, .F. ) ;
#202 = DIRECTION ( 'NONE',  ( -1.000000000000000000, 0.000000000000000000, -0.000000000000000000 ) ) ;
#203 = DIRECTION ( 'NONE',  ( -1.000000000000000000, 0.000000000000000000, 0.000000000000000000 ) ) ;
#204 = ORIENTED_EDGE ( 'NONE', *, *, #751, .F. ) ;
#205 = FACE_OUTER_BOUND ( 'NONE', #609, .T. ) ;
#206 = ORIENTED_EDGE ( 'NONE', *, *, #690, .T. ) ;
#207 = APPLICATION_CONTEXT ( 'automotive_design' ) ;
#208 = CARTESIAN_POINT ( 'NONE',  ( 30.00000000000000000, 0.000000000000000000, 2.500000000000000000 ) ) ;
#209 = EDGE_LOOP ( 'NONE', ( #444, #54, #637, #479, #206, #523, #239, #722 ) ) ;
#210 = CARTESIAN_POINT ( 'NONE',  ( 2.258843594192244897, 8.799949264158016149, 8.885789956634148723 ) ) ;
#211 = LINE ( 'NONE', #374, #438 ) ;
#212 = AXIS2_PLACEMENT_3D ( 'NONE', #376, #683, #84 ) ;
#213 = CARTESIAN_POINT ( 'NONE',  ( 5.427612606195432399, -6.047023035351378084, 10.93999599679678880 ) ) ;
#214 = DIRECTION ( 'NONE',  ( -0.000000000000000000, 1.000000000000000000, -0.000000000000000000 ) ) ;
#215 = EDGE_LOOP ( 'NONE', ( #134, #127 ) ) ;
#216 = CARTESIAN_POINT ( 'NONE',  ( 11.00000000000000000, 0.000000000000000000, 0.000000000000000000 ) ) ;
#217 = EDGE_CURVE ( 'NONE', #558, #495, #116, .T. ) ;
#218 = DIRECTION ( 'NONE',  ( -1.000000000000000000, -0.000000000000000000, -0.000000000000000000 ) ) ;
#219 =( NAMED_UNIT ( * ) PLANE_ANGLE_UNIT ( ) SI_UNIT ( $, .RADIAN. ) );
#220 = VERTEX_POINT ( 'NONE', #726 ) ;
#221 = FACE_OUTER_BOUND ( 'NONE', #142, .T. ) ;
#222 = CARTESIAN_POINT ( 'NONE',  ( 3.707978621793517338, 10.66387644555810965, 6.522519311037259016 ) ) ;
#223 = LINE ( 'NONE', #705, #370 ) ;
#224 = AXIS2_PLACEMENT_3D ( 'NONE', #338, #710, #169 ) ;
#225 = ORIENTED_EDGE ( 'NONE', *, *, #64, .F. ) ;
#226 = CARTESIAN_POINT ( 'NONE',  ( 11.00000000000000000, 0.000000000000000000, 0.000000000000000000 ) ) ;
#227 = DIRECTION ( 'NONE',  ( 0.000000000000000000, 0.000000000000000000, 1.000000000000000000 ) ) ;
#228 =( LENGTH_UNIT ( ) NAMED_UNIT ( * ) SI_UNIT ( .MILLI., .METRE. ) );
#229 = CIRCLE ( 'NONE', #650, 6.000000000000000888 ) ;
#230 = UNCERTAINTY_MEASURE_WITH_UNIT (LENGTH_MEASURE( 1.000000000000000082E-05 ), #550, 'distance_accuracy_value', 'NONE');
#231 = CARTESIAN_POINT ( 'NONE',  ( 8.748962985575300166, 8.254606274547501954, 9.388703070353209057 ) ) ;
#232 = DIRECTION ( 'NONE',  ( 0.000000000000000000, 1.000000000000000000, -1.231063965259953883E-16 ) ) ;
#233 = EDGE_LOOP ( 'NONE', ( #701, #561 ) ) ;
#234 = DIRECTION ( 'NONE',  ( 1.000000000000000000, 0.000000000000000000, 0.000000000000000000 ) ) ;
#235 = CARTESIAN_POINT ( 'NONE',  ( 8.183806312207606126, 5.799999999999998934, 11.07293998900021315 ) ) ;
#236 = ORIENTED_EDGE ( 'NONE', *, *, #533, .F. ) ;
#237 = CARTESIAN_POINT ( 'NONE',  ( 5.500000000000000000, 12.49999999999999822, 7.539995996796805322 ) ) ;
#238 = DIRECTION ( 'NONE',  ( 0.000000000000000000, -0.000000000000000000, -1.000000000000000000 ) ) ;
#239 = ORIENTED_EDGE ( 'NONE', *, *, #51, .F. ) ;
#240 = CIRCLE ( 'NONE', #648, 1.699999999999994849 ) ;
#241 = ADVANCED_FACE ( 'NONE', ( #541 ), #352, .F. ) ;
#242 = CARTESIAN_POINT ( 'NONE',  ( 30.00000000000000000, 3.061616997868383141E-16, -2.500000000000000000 ) ) ;
#243 = CARTESIAN_POINT ( 'NONE',  ( 0.000000000000000000, 0.5000000000000000000, 0.000000000000000000 ) ) ;
#244 = VERTEX_POINT ( 'NONE', #184 ) ;
#245 = EDGE_CURVE ( 'NONE', #495, #574, #500, .T. ) ;
#246 = CARTESIAN_POINT ( 'NONE',  ( 5.642261453220583256, -9.969877650617794629, 7.539995996796805322 ) ) ;
#247 = ORIENTED_EDGE ( 'NONE', *, *, #396, .T. ) ;
#248 = PRODUCT_DEFINITION_FORMATION_WITH_SPECIFIED_SOURCE ( 'ANY', '', #375, .NOT_KNOWN. ) ;
#249 = CARTESIAN_POINT ( 'NONE',  ( 7.127948087615632033, -7.811220017300109397, 9.762713330503050457 ) ) ;
#250 = CARTESIAN_POINT ( 'NONE',  ( 0.000000000000000000, 0.000000000000000000, 0.000000000000000000 ) ) ;
#251 = ADVANCED_FACE ( 'NONE', ( #151 ), #443, .T. ) ;
#252 = VERTEX_POINT ( 'NONE', #261 ) ;
#253 = CIRCLE ( 'NONE', #290, 3.249999999999999556 ) ;
#254 = CARTESIAN_POINT ( 'NONE',  ( 6.879081328079984736, -7.155910057249690759, 10.25214727891811073 ) ) ;
#255 = ADVANCED_FACE ( 'NONE', ( #205 ), #312, .T. ) ;
#256 = CARTESIAN_POINT ( 'NONE',  ( 4.960830983501208991, -6.194190912201007038, 10.85754021549689163 ) ) ;
#257 = ORIENTED_EDGE ( 'NONE', *, *, #29, .F. ) ;
#258 = CARTESIAN_POINT ( 'NONE',  ( 5.786198640977842089, -9.956014643041322998, 7.558418258104243392 ) ) ;
#259 = CARTESIAN_POINT ( 'NONE',  ( 3.872806178269001975, -7.808709295561980568, 9.764674330207688158 ) ) ;
#260 = VERTEX_POINT ( 'NONE', #573 ) ;
#261 = CARTESIAN_POINT ( 'NONE',  ( 5.500000000000000000, 0.5000000000000004441, 7.539995996796805322 ) ) ;
#262 = ORIENTED_EDGE ( 'NONE', *, *, #446, .T. ) ;
#263 = PLANE ( 'NONE',  #512 ) ;
#264 = EDGE_LOOP ( 'NONE', ( #74, #424, #121, #28 ) ) ;
#265 = VECTOR ( 'NONE', #192, 1000.000000000000000 ) ;
#266 = CIRCLE ( 'NONE', #636, 12.50000000000000000 ) ;
#267 = MECHANICAL_DESIGN_GEOMETRIC_PRESENTATION_REPRESENTATION (  '', ( #614 ), #294 ) ;
#268 = CARTESIAN_POINT ( 'NONE',  ( 2.291236934410264769, 7.800588536211308543, 9.769123463168526200 ) ) ;
#269 = CARTESIAN_POINT ( 'NONE',  ( 11.00000000000000000, -0.5000000000000000000, 0.000000000000000000 ) ) ;
#270 = CARTESIAN_POINT ( 'NONE',  ( 2.297453708984700249, 9.064679926812832633, 8.615189250081833450 ) ) ;
#271 = CARTESIAN_POINT ( 'NONE',  ( 5.500000000000000000, 12.49999999999999822, 9.239995996796798394 ) ) ;
#272 = EDGE_CURVE ( 'NONE', #138, #428, #253, .T. ) ;
#273 = VERTEX_POINT ( 'NONE', #627 ) ;
#274 = PLANE ( 'NONE',  #353 ) ;
#275 = CARTESIAN_POINT ( 'NONE',  ( 2.939516329340009282, 10.19726877430823642, 7.231179431173368144 ) ) ;
#276 = CIRCLE ( 'NONE', #724, 1.699999999999993072 ) ;
#277 = EDGE_CURVE ( 'NONE', #260, #454, #763, .T. ) ;
#278 = DIRECTION ( 'NONE',  ( 0.000000000000000000, 0.000000000000000000, 1.000000000000000000 ) ) ;
#279 = ORIENTED_EDGE ( 'NONE', *, *, #32, .T. ) ;
#280 = CARTESIAN_POINT ( 'NONE',  ( 20.00000000000000000, 0.000000000000000000, 0.000000000000000000 ) ) ;
#281 = CARTESIAN_POINT ( 'NONE',  ( 3.557976551528724052, 10.59890455186376279, 6.628060243999308376 ) ) ;
#282 = ORIENTED_EDGE ( 'NONE', *, *, #530, .F. ) ;
#283 = LINE ( 'NONE', #208, #108 ) ;
#284 = CARTESIAN_POINT ( 'NONE',  ( 20.00000000000000000, 0.000000000000000000, 0.000000000000000000 ) ) ;
#285 = AXIS2_PLACEMENT_3D ( 'NONE', #647, #234, #775 ) ;
#286 = VERTEX_POINT ( 'NONE', #20 ) ;
#287 = DIRECTION ( 'NONE',  ( -1.000000000000000000, 0.000000000000000000, -0.000000000000000000 ) ) ;
#288 = ADVANCED_FACE ( 'NONE', ( #744, #34 ), #89, .F. ) ;
#289 = CYLINDRICAL_SURFACE ( 'NONE', #170, 2.500000000000000000 ) ;
#290 = AXIS2_PLACEMENT_3D ( 'NONE', #507, #568, #514 ) ;
#291 = FACE_BOUND ( 'NONE', #233, .T. ) ;
#292 = CARTESIAN_POINT ( 'NONE',  ( 0.000000000000000000, -0.5000000000000000000, 5.979130371550700040 ) ) ;
#293 = CARTESIAN_POINT ( 'NONE',  ( 5.500000000000000000, 5.799999999999998046, 7.539995996796803546 ) ) ;
#294 =( GEOMETRIC_REPRESENTATION_CONTEXT ( 3 ) GLOBAL_UNCERTAINTY_ASSIGNED_CONTEXT ( ( #350 ) ) GLOBAL_UNIT_ASSIGNED_CONTEXT ( ( #228, #219, #456 ) ) REPRESENTATION_CONTEXT ( 'NONE', 'WORKASPACE' ) );
#295 = DIRECTION ( 'NONE',  ( 0.000000000000000000, -0.000000000000000000, 1.000000000000000000 ) ) ;
#296 = AXIS2_PLACEMENT_3D ( 'NONE', #700, #577, #474 ) ;
#297 = ORIENTED_EDGE ( 'NONE', *, *, #751, .T. ) ;
#298 = DIRECTION ( 'NONE',  ( 0.000000000000000000, 0.000000000000000000, 1.000000000000000000 ) ) ;
#299 = DIRECTION ( 'NONE',  ( -0.000000000000000000, 1.231063965259953883E-16, 1.000000000000000000 ) ) ;
#300 = ORIENTED_EDGE ( 'NONE', *, *, #328, .T. ) ;
#301 = ADVANCED_FACE ( 'NONE', ( #199 ), #263, .F. ) ;
#302 = CARTESIAN_POINT ( 'NONE',  ( 4.191110795903494335, 10.82017364586033814, 6.259351164279611801 ) ) ;
#303 = DIRECTION ( 'NONE',  ( 0.000000000000000000, -1.000000000000000000, 0.000000000000000000 ) ) ;
#304 = EDGE_CURVE ( 'NONE', #440, #551, #240, .T. ) ;
#305 = ORIENTED_EDGE ( 'NONE', *, *, #565, .T. ) ;
#306 = CIRCLE ( 'NONE', #12, 1.699999999999993072 ) ;
#307 = CARTESIAN_POINT ( 'NONE',  ( 5.674248291375927344, 10.97185880505446143, 5.989016257226456474 ) ) ;
#308 = CIRCLE ( 'NONE', #677, 6.000000000000000888 ) ;
#309 = ORIENTED_EDGE ( 'NONE', *, *, #362, .T. ) ;
#310 = APPLICATION_PROTOCOL_DEFINITION ( 'draft international standard', 'automotive_design', 1998, #207 ) ;
#311 = CARTESIAN_POINT ( 'NONE',  ( 7.095853968829965552, -9.057076187870599426, 8.619580632782655627 ) ) ;
#312 = PLANE ( 'NONE',  #318 ) ;
#313 = ORIENTED_EDGE ( 'NONE', *, *, #472, .F. ) ;
#314 = EDGE_CURVE ( 'NONE', #195, #688, #687, .T. ) ;
#315 = DIRECTION ( 'NONE',  ( 0.000000000000000000, 0.000000000000000000, 1.000000000000000000 ) ) ;
#316 = CARTESIAN_POINT ( 'NONE',  ( 4.316020945002412290, -6.839455425492383611, 10.46364095684121054 ) ) ;
#317 = ORIENTED_EDGE ( 'NONE', *, *, #197, .F. ) ;
#318 = AXIS2_PLACEMENT_3D ( 'NONE', #387, #203, #625 ) ;
#319 = CARTESIAN_POINT ( 'NONE',  ( 6.461195042324919591, -6.530167567222949998, 10.66051779326709337 ) ) ;
#320 = DIRECTION ( 'NONE',  ( 1.000000000000000000, 0.000000000000000000, 0.000000000000000000 ) ) ;
#321 = ORIENTED_EDGE ( 'NONE', *, *, #546, .T. ) ;
#322 = CARTESIAN_POINT ( 'NONE',  ( 3.992169043432038489, -9.241463861771833876, 8.420695584367235753 ) ) ;
#323 = ORIENTED_EDGE ( 'NONE', *, *, #386, .F. ) ;
#324 = EDGE_CURVE ( 'NONE', #252, #555, #306, .T. ) ;
#325 = CIRCLE ( 'NONE', #285, 12.50000000000000000 ) ;
#326 = DIRECTION ( 'NONE',  ( 0.000000000000000000, 0.000000000000000000, 1.000000000000000000 ) ) ;
#327 = ORIENTED_EDGE ( 'NONE', *, *, #588, .T. ) ;
#328 = EDGE_CURVE ( 'NONE', #718, #154, #735, .T. ) ;
#329 = APPLICATION_CONTEXT ( 'automotive_design' ) ;
#330 = FACE_OUTER_BOUND ( 'NONE', #659, .T. ) ;
#331 = DIRECTION ( 'NONE',  ( -1.000000000000000000, 0.000000000000000000, -0.000000000000000000 ) ) ;
#332 = VECTOR ( 'NONE', #157, 1000.000000000000000 ) ;
#333 = CARTESIAN_POINT ( 'NONE',  ( 0.000000000000000000, 0.000000000000000000, 0.000000000000000000 ) ) ;
#334 = PRESENTATION_LAYER_ASSIGNMENT (  '', '', ( #614 ) ) ;
#335 = DIRECTION ( 'NONE',  ( 0.000000000000000000, 0.000000000000000000, 1.000000000000000000 ) ) ;
#336 = EDGE_CURVE ( 'NONE', #431, #603, #99, .T. ) ;
#337 = FACE_OUTER_BOUND ( 'NONE', #86, .T. ) ;
#338 = CARTESIAN_POINT ( 'NONE',  ( 0.000000000000000000, -0.5000000000000000000, 0.000000000000000000 ) ) ;
#339 = ADVANCED_FACE ( 'NONE', ( #756 ), #526, .F. ) ;
#340 = CARTESIAN_POINT ( 'NONE',  ( 12.00000000000000000, -0.5000000000000000000, 5.979130371550700040 ) ) ;
#341 = CARTESIAN_POINT ( 'NONE',  ( 12.00000000000000000, -4.000000000000000000, -4.472135954999581386 ) ) ;
#342 = ORIENTED_EDGE ( 'NONE', *, *, #505, .T. ) ;
#343 = CARTESIAN_POINT ( 'NONE',  ( 5.219239940672853351, -6.086509481198780769, 10.91809141780949766 ) ) ;
#344 = VECTOR ( 'NONE', #587, 1000.000000000000000 ) ;
#345 = ORIENTED_EDGE ( 'NONE', *, *, #446, .F. ) ;
#346 = DIRECTION ( 'NONE',  ( 0.000000000000000000, 0.000000000000000000, 1.000000000000000000 ) ) ;
#347 = DIRECTION ( 'NONE',  ( 1.000000000000000000, 0.000000000000000000, 0.000000000000000000 ) ) ;
#348 = DIRECTION ( 'NONE',  ( -1.000000000000000000, -0.000000000000000000, -0.000000000000000000 ) ) ;
#349 = CARTESIAN_POINT ( 'NONE',  ( 11.00000000000000000, 0.000000000000000000, 0.000000000000000000 ) ) ;
#350 = UNCERTAINTY_MEASURE_WITH_UNIT (LENGTH_MEASURE( 1.000000000000000082E-05 ), #228, 'distance_accuracy_value', 'NONE');
#351 = CARTESIAN_POINT ( 'NONE',  ( 30.00000000000000000, 0.000000000000000000, 0.000000000000000000 ) ) ;
#352 = CYLINDRICAL_SURFACE ( 'NONE', #737, 1.699999999999993072 ) ;
#353 = AXIS2_PLACEMENT_3D ( 'NONE', #216, #287, #706 ) ;
#354 = DIRECTION ( 'NONE',  ( 0.000000000000000000, 1.000000000000000000, 0.000000000000000000 ) ) ;
#355 = AXIS2_PLACEMENT_3D ( 'NONE', #608, #129, #68 ) ;
#356 = ORIENTED_EDGE ( 'NONE', *, *, #124, .F. ) ;
#357 = CARTESIAN_POINT ( 'NONE',  ( 8.045593788874919383, 10.21059415183881036, 7.212329044667614042 ) ) ;
#358 = DIRECTION ( 'NONE',  ( -0.000000000000000000, 1.000000000000000000, -0.000000000000000000 ) ) ;
#359 = EDGE_CURVE ( 'NONE', #626, #495, #38, .T. ) ;
#360 = VERTEX_POINT ( 'NONE', #453 ) ;
#361 = CARTESIAN_POINT ( 'NONE',  ( 8.523743607592733085, 9.574040667915049596, 8.038684129209151763 ) ) ;
#362 = EDGE_CURVE ( 'NONE', #220, #244, #83, .T. ) ;
#363 = ORIENTED_EDGE ( 'NONE', *, *, #272, .T. ) ;
#364 = CARTESIAN_POINT ( 'NONE',  ( 6.242208082598327046, 10.92722439867553952, 6.070184469479374734 ) ) ;
#365 = CARTESIAN_POINT ( 'NONE',  ( 11.00000000000000000, -4.000000000000000000, -14.09125378477388679 ) ) ;
#366 = ORIENTED_EDGE ( 'NONE', *, *, #640, .F. ) ;
#367 = FACE_OUTER_BOUND ( 'NONE', #69, .T. ) ;
#368 = VECTOR ( 'NONE', #189, 1000.000000000000000 ) ;
#369 = CARTESIAN_POINT ( 'NONE',  ( 5.358002186031645131, -9.969877650617787523, 7.539995996796804434 ) ) ;
#370 = VECTOR ( 'NONE', #214, 1000.000000000000000 ) ;
#371 = ORIENTED_EDGE ( 'NONE', *, *, #9, .T. ) ;
#372 = ADVANCED_FACE ( 'NONE', ( #459 ), #402, .F. ) ;
#373 = AXIS2_PLACEMENT_3D ( 'NONE', #271, #762, #460 ) ;
#374 = CARTESIAN_POINT ( 'NONE',  ( 20.00000000000000000, 0.5000000000000000000, 12.48999599679679839 ) ) ;
#375 = PRODUCT ( 'RFhold', 'RFhold', '', ( #552 ) ) ;
#376 = CARTESIAN_POINT ( 'NONE',  ( 30.00000000000000000, 0.000000000000000000, 0.000000000000000000 ) ) ;
#377 = EDGE_LOOP ( 'NONE', ( #709, #300 ) ) ;
#378 = FACE_BOUND ( 'NONE', #66, .T. ) ;
#379 = DIRECTION ( 'NONE',  ( 0.000000000000000000, 0.000000000000000000, -1.000000000000000000 ) ) ;
#380 = ORIENTED_EDGE ( 'NONE', *, *, #336, .T. ) ;
#381 = VECTOR ( 'NONE', #399, 1000.000000000000000 ) ;
#382 = CARTESIAN_POINT ( 'NONE',  ( 5.500000000000000000, 0.5000000000000004441, 10.93999599679679235 ) ) ;
#383 = CARTESIAN_POINT ( 'NONE',  ( 5.500000000000000000, -9.969877650617794629, 7.539995996796805322 ) ) ;
#384 = EDGE_CURVE ( 'NONE', #195, #755, #765, .T. ) ;
#385 = VERTEX_POINT ( 'NONE', #521 ) ;
#386 = EDGE_CURVE ( 'NONE', #244, #220, #586, .T. ) ;
#387 = CARTESIAN_POINT ( 'NONE',  ( 12.00000000000000000, 0.000000000000000000, 0.000000000000000000 ) ) ;
#388 = ORIENTED_EDGE ( 'NONE', *, *, #336, .F. ) ;
#389 =( GEOMETRIC_REPRESENTATION_CONTEXT ( 3 ) GLOBAL_UNCERTAINTY_ASSIGNED_CONTEXT ( ( #56 ) ) GLOBAL_UNIT_ASSIGNED_CONTEXT ( ( #480, #534, #117 ) ) REPRESENTATION_CONTEXT ( 'NONE', 'WORKASPACE' ) );
#390 = CARTESIAN_POINT ( 'NONE',  ( 2.406859768173052583, 7.061446994846833469, 10.34143328254777749 ) ) ;
#391 = ORIENTED_EDGE ( 'NONE', *, *, #481, .F. ) ;
#392 =( GEOMETRIC_REPRESENTATION_CONTEXT ( 3 ) GLOBAL_UNCERTAINTY_ASSIGNED_CONTEXT ( ( #230 ) ) GLOBAL_UNIT_ASSIGNED_CONTEXT ( ( #550, #72, #658 ) ) REPRESENTATION_CONTEXT ( 'NONE', 'WORKASPACE' ) );
#393 = CARTESIAN_POINT ( 'NONE',  ( 2.667676954213267226, 9.896444005811611433, 7.638016303546010022 ) ) ;
#394 = CARTESIAN_POINT ( 'NONE',  ( 30.00000000000000000, 3.061616997868383141E-16, -2.500000000000000000 ) ) ;
#395 = ORIENTED_EDGE ( 'NONE', *, *, #217, .T. ) ;
#396 = EDGE_CURVE ( 'NONE', #470, #693, #531, .T. ) ;
#397 = CARTESIAN_POINT ( 'NONE',  ( 5.500000000000000888, -6.047023035351379860, 10.93999599679679235 ) ) ;
#398 = VECTOR ( 'NONE', #348, 1000.000000000000000 ) ;
#399 = DIRECTION ( 'NONE',  ( 1.000000000000000000, 0.000000000000000000, 0.000000000000000000 ) ) ;
#400 = FILL_AREA_STYLE_COLOUR ( '', #517 ) ;
#401 = CARTESIAN_POINT ( 'NONE',  ( 5.500000000000000000, -0.5000000000000004441, 9.239995996796798394 ) ) ;
#402 = CYLINDRICAL_SURFACE ( 'NONE', #182, 1.699999999999993072 ) ;
#403 = LINE ( 'NONE', #589, #611 ) ;
#404 = EDGE_LOOP ( 'NONE', ( #485, #605, #566, #309 ) ) ;
#405 = CARTESIAN_POINT ( 'NONE',  ( 0.000000000000000000, 0.000000000000000000, 0.000000000000000000 ) ) ;
#406 = AXIS2_PLACEMENT_3D ( 'NONE', #250, #320, #570 ) ;
#407 = DIRECTION ( 'NONE',  ( 0.000000000000000000, 1.000000000000000000, 0.000000000000000000 ) ) ;
#408 = EDGE_CURVE ( 'NONE', #260, #220, #283, .T. ) ;
#409 = VERTEX_POINT ( 'NONE', #699 ) ;
#410 = VECTOR ( 'NONE', #660, 1000.000000000000000 ) ;
#411 = DIRECTION ( 'NONE',  ( 1.000000000000000000, 0.000000000000000000, 0.000000000000000000 ) ) ;
#412 = CIRCLE ( 'NONE', #139, 12.50000000000000000 ) ;
#413 = CARTESIAN_POINT ( 'NONE',  ( 8.699129019375266836, 9.080983155022297026, 8.597948067981610265 ) ) ;
#414 = LINE ( 'NONE', #580, #97 ) ;
#415 = ORIENTED_EDGE ( 'NONE', *, *, #667, .F. ) ;
#416 = LINE ( 'NONE', #5, #672 ) ;
#417 = CARTESIAN_POINT ( 'NONE',  ( 8.575916975821812116, 9.453156157377964774, 8.180622236395219460 ) ) ;
#418 = CARTESIAN_POINT ( 'NONE',  ( 12.00000000000000000, 0.000000000000000000, 0.000000000000000000 ) ) ;
#419 = ORIENTED_EDGE ( 'NONE', *, *, #584, .T. ) ;
#420 = DIRECTION ( 'NONE',  ( 0.000000000000000000, 0.000000000000000000, 1.000000000000000000 ) ) ;
#421 = ADVANCED_FACE ( 'NONE', ( #330 ), #166, .F. ) ;
#422 = CARTESIAN_POINT ( 'NONE',  ( 5.101580266904061745, 10.96104858480193656, 6.008905607940544513 ) ) ;
#423 = AXIS2_PLACEMENT_3D ( 'NONE', #503, #686, #379 ) ;
#424 = ORIENTED_EDGE ( 'NONE', *, *, #667, .T. ) ;
#425 = EDGE_CURVE ( 'NONE', #428, #138, #33, .T. ) ;
#426 = CARTESIAN_POINT ( 'NONE',  ( 4.024520068407748674, 10.77430240706054931, 6.338448284098586960 ) ) ;
#427 = FACE_OUTER_BOUND ( 'NONE', #264, .T. ) ;
#428 = VERTEX_POINT ( 'NONE', #665 ) ;
#429 = LINE ( 'NONE', #57, #46 ) ;
#430 = FILL_AREA_STYLE_COLOUR ( '', #458 ) ;
#431 = VERTEX_POINT ( 'NONE', #67 ) ;
#432 = VECTOR ( 'NONE', #465, 1000.000000000000000 ) ;
#433 = DIRECTION ( 'NONE',  ( -1.000000000000000000, -0.000000000000000000, -0.000000000000000000 ) ) ;
#434 = CARTESIAN_POINT ( 'NONE',  ( 5.500000000000000000, 5.799999999999998046, 9.239995996796798394 ) ) ;
#435 = PRESENTATION_LAYER_ASSIGNMENT (  '', '', ( #122 ) ) ;
#436 = ORIENTED_EDGE ( 'NONE', *, *, #606, .F. ) ;
#437 = DIRECTION ( 'NONE',  ( 1.000000000000000000, 0.000000000000000000, 0.000000000000000000 ) ) ;
#438 = VECTOR ( 'NONE', #437, 1000.000000000000000 ) ;
#439 = DIRECTION ( 'NONE',  ( 0.000000000000000000, 0.000000000000000000, 1.000000000000000000 ) ) ;
#440 = VERTEX_POINT ( 'NONE', #293 ) ;
#441 = APPLICATION_PROTOCOL_DEFINITION ( 'draft international standard', 'automotive_design', 1998, #329 ) ;
#442 = CARTESIAN_POINT ( 'NONE',  ( 20.00000000000000000, -4.000000000000000000, -11.84271928232701221 ) ) ;
#443 = PLANE ( 'NONE',  #212 ) ;
#444 = ORIENTED_EDGE ( 'NONE', *, *, #9, .F. ) ;
#445 = CARTESIAN_POINT ( 'NONE',  ( 0.000000000000000000, 0.5000000000000000000, 5.979130371550700040 ) ) ;
#446 = EDGE_CURVE ( 'NONE', #156, #684, #276, .T. ) ;
#447 = DIRECTION ( 'NONE',  ( 0.000000000000000000, -0.000000000000000000, -1.000000000000000000 ) ) ;
#448 = EDGE_LOOP ( 'NONE', ( #363, #504 ) ) ;
#449 = AXIS2_PLACEMENT_3D ( 'NONE', #692, #630, #335 ) ;
#450 = EDGE_CURVE ( 'NONE', #603, #489, #429, .T. ) ;
#451 = DIRECTION ( 'NONE',  ( -1.000000000000000000, 0.000000000000000000, -0.000000000000000000 ) ) ;
#452 = ORIENTED_EDGE ( 'NONE', *, *, #75, .F. ) ;
#453 = CARTESIAN_POINT ( 'NONE',  ( 11.00000000000000000, -3.999999999999998224, -11.84271928232701221 ) ) ;
#454 = VERTEX_POINT ( 'NONE', #242 ) ;
#455 = CARTESIAN_POINT ( 'NONE',  ( 5.357159822629934176, -6.055339438489372839, 10.93540955598112596 ) ) ;
#456 =( NAMED_UNIT ( * ) SI_UNIT ( $, .STERADIAN. ) SOLID_ANGLE_UNIT ( ) );
#457 = FACE_BOUND ( 'NONE', #215, .T. ) ;
#458 = COLOUR_RGB ( '',0.8980392156862745390, 0.9176470588235293713, 0.9294117647058823817 ) ;
#459 = FACE_OUTER_BOUND ( 'NONE', #515, .T. ) ;
#460 = DIRECTION ( 'NONE',  ( 0.000000000000000000, 0.000000000000000000, 1.000000000000000000 ) ) ;
#461 = ORIENTED_EDGE ( 'NONE', *, *, #384, .F. ) ;
#462 = CYLINDRICAL_SURFACE ( 'NONE', #90, 12.50000000000000000 ) ;
#463 = CARTESIAN_POINT ( 'NONE',  ( 20.00000000000000000, 0.000000000000000000, 0.000000000000000000 ) ) ;
#464 = VERTEX_POINT ( 'NONE', #601 ) ;
#465 = DIRECTION ( 'NONE',  ( 0.000000000000000000, 0.000000000000000000, 1.000000000000000000 ) ) ;
#466 = AXIS2_PLACEMENT_3D ( 'NONE', #226, #524, #420 ) ;
#467 = DIRECTION ( 'NONE',  ( 1.000000000000000000, 0.000000000000000000, 0.000000000000000000 ) ) ;
#468 = ADVANCED_FACE ( 'NONE', ( #473 ), #289, .T. ) ;
#469 = DIRECTION ( 'NONE',  ( 0.000000000000000000, 0.000000000000000000, -1.000000000000000000 ) ) ;
#470 = VERTEX_POINT ( 'NONE', #598 ) ;
#471 = DIRECTION ( 'NONE',  ( 0.000000000000000000, 0.000000000000000000, -1.000000000000000000 ) ) ;
#472 = EDGE_CURVE ( 'NONE', #164, #688, #133, .T. ) ;
#473 = FACE_OUTER_BOUND ( 'NONE', #600, .T. ) ;
#474 = DIRECTION ( 'NONE',  ( 0.000000000000000000, 0.000000000000000000, 1.000000000000000000 ) ) ;
#475 = ORIENTED_EDGE ( 'NONE', *, *, #758, .T. ) ;
#476 = CIRCLE ( 'NONE', #2, 12.50000000000000000 ) ;
#477 = DIRECTION ( 'NONE',  ( -0.000000000000000000, 1.000000000000000000, -0.000000000000000000 ) ) ;
#478 = CARTESIAN_POINT ( 'NONE',  ( 5.500000000000000000, 12.49999999999999822, 9.239995996796798394 ) ) ;
#479 = ORIENTED_EDGE ( 'NONE', *, *, #606, .T. ) ;
#480 =( LENGTH_UNIT ( ) NAMED_UNIT ( * ) SI_UNIT ( .MILLI., .METRE. ) );
#481 = EDGE_CURVE ( 'NONE', #252, #440, #10, .T. ) ;
#482 = DIRECTION ( 'NONE',  ( -1.000000000000000000, -0.000000000000000000, -0.000000000000000000 ) ) ;
#483 = PLANE ( 'NONE',  #774 ) ;
#484 = ADVANCED_FACE ( 'NONE', ( #13 ), #486, .F. ) ;
#485 = ORIENTED_EDGE ( 'NONE', *, *, #85, .F. ) ;
#486 = CYLINDRICAL_SURFACE ( 'NONE', #610, 1.699999999999993072 ) ;
#487 = PRESENTATION_STYLE_ASSIGNMENT (( #181 ) ) ;
#488 = VECTOR ( 'NONE', #218, 1000.000000000000000 ) ;
#489 = VERTEX_POINT ( 'NONE', #725 ) ;
#490 = DIRECTION ( 'NONE',  ( -1.000000000000000000, -0.000000000000000000, -0.000000000000000000 ) ) ;
#491 = FACE_OUTER_BOUND ( 'NONE', #624, .T. ) ;
#492 = ORIENTED_EDGE ( 'NONE', *, *, #144, .T. ) ;
#493 = CARTESIAN_POINT ( 'NONE',  ( 5.500000000000000000, -9.969877650617794629, 7.539995996796805322 ) ) ;
#494 = DIRECTION ( 'NONE',  ( 0.000000000000000000, 0.000000000000000000, 1.000000000000000000 ) ) ;
#495 = VERTEX_POINT ( 'NONE', #186 ) ;
#496 = CARTESIAN_POINT ( 'NONE',  ( 0.000000000000000000, 0.000000000000000000, 0.000000000000000000 ) ) ;
#497 = AXIS2_PLACEMENT_3D ( 'NONE', #496, #123, #132 ) ;
#498 = CARTESIAN_POINT ( 'NONE',  ( 6.729160451654847996, -9.572088571968457416, 8.042814987908709412 ) ) ;
#499 = CARTESIAN_POINT ( 'NONE',  ( 4.942763098370535957, -9.902925848146409749, 7.627841582175141966 ) ) ;
#500 = CIRCLE ( 'NONE', #23, 6.000000000000000888 ) ;
#501 = ORIENTED_EDGE ( 'NONE', *, *, #51, .T. ) ;
#502 = CARTESIAN_POINT ( 'NONE',  ( 6.979513132694082245, -7.374003460962177847, 10.09701949537434018 ) ) ;
#503 = CARTESIAN_POINT ( 'NONE',  ( 30.00000000000000000, 0.000000000000000000, 0.000000000000000000 ) ) ;
#504 = ORIENTED_EDGE ( 'NONE', *, *, #617, .F. ) ;
#505 = EDGE_CURVE ( 'NONE', #755, #470, #183, .T. ) ;
#506 = LINE ( 'NONE', #743, #368 ) ;
#507 = CARTESIAN_POINT ( 'NONE',  ( 5.500000000000000000, 5.799999999999998934, 9.239995996796798394 ) ) ;
#508 = EDGE_LOOP ( 'NONE', ( #313, #366, #727, #631, #742, #745, #461, #676 ) ) ;
#509 = ADVANCED_FACE ( 'NONE', ( #378, #367 ), #638, .T. ) ;
#510 = CARTESIAN_POINT ( 'NONE',  ( 4.846161583065534906, -6.271459633415705781, 10.81335789598147734 ) ) ;
#511 = ORIENTED_EDGE ( 'NONE', *, *, #723, .F. ) ;
#512 = AXIS2_PLACEMENT_3D ( 'NONE', #754, #451, #675 ) ;
#513 = CIRCLE ( 'NONE', #713, 2.500000000000000000 ) ;
#514 = DIRECTION ( 'NONE',  ( 0.000000000000000000, 0.000000000000000000, 1.000000000000000000 ) ) ;
#515 = EDGE_LOOP ( 'NONE', ( #749, #668, #297, #21 ) ) ;
#516 = VECTOR ( 'NONE', #45, 1000.000000000000000 ) ;
#517 = COLOUR_RGB ( '',0.000000000000000000, 1.000000000000000000, 1.000000000000000000 ) ;
#518 = CARTESIAN_POINT ( 'NONE',  ( 2.251842481833306930, 8.236155262058206361, 9.404880135378260064 ) ) ;
#519 = DIRECTION ( 'NONE',  ( 0.000000000000000000, 0.000000000000000000, -1.000000000000000000 ) ) ;
#520 = LINE ( 'NONE', #79, #96 ) ;
#521 = CARTESIAN_POINT ( 'NONE',  ( 11.00000000000000000, -3.999999999999998224, -4.472135954999580498 ) ) ;
#522 = CARTESIAN_POINT ( 'NONE',  ( 30.00000000000000000, 0.000000000000000000, 0.000000000000000000 ) ) ;
#523 = ORIENTED_EDGE ( 'NONE', *, *, #112, .F. ) ;
#524 = DIRECTION ( 'NONE',  ( -1.000000000000000000, 0.000000000000000000, -0.000000000000000000 ) ) ;
#525 = AXIS2_PLACEMENT_3D ( 'NONE', #707, #467, #768 ) ;
#526 = CYLINDRICAL_SURFACE ( 'NONE', #449, 6.000000000000000888 ) ;
#527 = SURFACE_STYLE_FILL_AREA ( #593 ) ;
#528 = ORIENTED_EDGE ( 'NONE', *, *, #425, .F. ) ;
#529 = DIRECTION ( 'NONE',  ( -1.000000000000000000, -0.000000000000000000, -0.000000000000000000 ) ) ;
#530 = EDGE_CURVE ( 'NONE', #603, #693, #229, .T. ) ;
#531 = LINE ( 'NONE', #340, #344 ) ;
#532 = ORIENTED_EDGE ( 'NONE', *, *, #61, .F. ) ;
#533 = EDGE_CURVE ( 'NONE', #154, #718, #642, .T. ) ;
#534 =( NAMED_UNIT ( * ) PLANE_ANGLE_UNIT ( ) SI_UNIT ( $, .RADIAN. ) );
#535 = DIRECTION ( 'NONE',  ( -0.000000000000000000, 1.000000000000000000, -0.000000000000000000 ) ) ;
#536 = SURFACE_STYLE_USAGE ( .BOTH. , #53 ) ;
#537 = DIRECTION ( 'NONE',  ( 0.000000000000000000, 0.000000000000000000, 1.000000000000000000 ) ) ;
#538 = CIRCLE ( 'NONE', #355, 1.699999999999994849 ) ;
#539 = PRODUCT_DEFINITION_CONTEXT ( 'detailed design', #207, 'design' ) ;
#540 = CARTESIAN_POINT ( 'NONE',  ( 8.396722605249729909, 9.802559517767360120, 7.758384119178348470 ) ) ;
#541 = FACE_OUTER_BOUND ( 'NONE', #131, .T. ) ;
#542 = ORIENTED_EDGE ( 'NONE', *, *, #304, .T. ) ;
#543 = CARTESIAN_POINT ( 'NONE',  ( 11.00000000000000000, -0.5000000000000000000, 12.48999599679679839 ) ) ;
#544 = AXIS2_PLACEMENT_3D ( 'NONE', #365, #303, #238 ) ;
#545 = CARTESIAN_POINT ( 'NONE',  ( 7.268798843601848247, 10.67312450262070023, 6.507347962252971740 ) ) ;
#546 = EDGE_CURVE ( 'NONE', #360, #464, #736, .T. ) ;
#547 = PLANE ( 'NONE',  #544 ) ;
#548 = EDGE_LOOP ( 'NONE', ( #615, #356, #652, #11 ) ) ;
#549 = CARTESIAN_POINT ( 'NONE',  ( 20.00000000000000000, 1.530808498934191521E-15, -12.50000000000000000 ) ) ;
#550 =( LENGTH_UNIT ( ) NAMED_UNIT ( * ) SI_UNIT ( .MILLI., .METRE. ) );
#551 = VERTEX_POINT ( 'NONE', #567 ) ;
#552 = PRODUCT_CONTEXT ( 'NONE', #329, 'mechanical' ) ;
#553 = DIRECTION ( 'NONE',  ( 0.000000000000000000, 0.000000000000000000, 1.000000000000000000 ) ) ;
#554 = FACE_OUTER_BOUND ( 'NONE', #585, .T. ) ;
#555 = VERTEX_POINT ( 'NONE', #382 ) ;
#556 = EDGE_CURVE ( 'NONE', #626, #431, #308, .T. ) ;
#557 = CARTESIAN_POINT ( 'NONE',  ( 6.057532627872036279, -9.902861406313078874, 7.627925675060786226 ) ) ;
#558 = VERTEX_POINT ( 'NONE', #140 ) ;
#559 = CARTESIAN_POINT ( 'NONE',  ( 5.786202883613635883, -6.081871809778522930, 10.92085399186248651 ) ) ;
#560 = DIRECTION ( 'NONE',  ( -0.000000000000000000, 1.000000000000000000, -0.000000000000000000 ) ) ;
#561 = ORIENTED_EDGE ( 'NONE', *, *, #324, .T. ) ;
#562 = DIRECTION ( 'NONE',  ( -1.000000000000000000, 0.000000000000000000, 0.000000000000000000 ) ) ;
#563 = CARTESIAN_POINT ( 'NONE',  ( 4.388033046609214338, -6.736709084485245747, 10.52997942538696563 ) ) ;
#564 = AXIS2_PLACEMENT_3D ( 'NONE', #602, #358, #494 ) ;
#565 = EDGE_CURVE ( 'NONE', #454, #260, #513, .T. ) ;
#566 = ORIENTED_EDGE ( 'NONE', *, *, #408, .T. ) ;
#567 = CARTESIAN_POINT ( 'NONE',  ( 5.500000000000000000, 5.799999999999998046, 10.93999599679679413 ) ) ;
#568 = DIRECTION ( 'NONE',  ( -0.000000000000000000, 1.000000000000000000, -0.000000000000000000 ) ) ;
#569 = ORIENTED_EDGE ( 'NONE', *, *, #277, .T. ) ;
#570 = DIRECTION ( 'NONE',  ( 0.000000000000000000, 0.000000000000000000, -1.000000000000000000 ) ) ;
#571 = ORIENTED_EDGE ( 'NONE', *, *, #362, .F. ) ;
#572 = CIRCLE ( 'NONE', #188, 6.000000000000000888 ) ;
#573 = CARTESIAN_POINT ( 'NONE',  ( 30.00000000000000000, 0.000000000000000000, 2.500000000000000000 ) ) ;
#574 = VERTEX_POINT ( 'NONE', #731 ) ;
#575 = VECTOR ( 'NONE', #1, 1000.000000000000000 ) ;
#576 = DIRECTION ( 'NONE',  ( 0.000000000000000000, 0.000000000000000000, 1.000000000000000000 ) ) ;
#577 = DIRECTION ( 'NONE',  ( -1.000000000000000000, 0.000000000000000000, -0.000000000000000000 ) ) ;
#578 = CARTESIAN_POINT ( 'NONE',  ( 6.620748696741930672, -6.736667951443994440, 10.53237283275058722 ) ) ;
#579 = CARTESIAN_POINT ( 'NONE',  ( 2.839774092839565167, 10.10048906355618392, 7.366072066602466606 ) ) ;
#580 = CARTESIAN_POINT ( 'NONE',  ( 11.00000000000000000, -4.000000000000000000, -14.09125378477388679 ) ) ;
#581 = CARTESIAN_POINT ( 'NONE',  ( 11.00000000000000000, 4.000000000000000000, 0.000000000000000000 ) ) ;
#582 = CARTESIAN_POINT ( 'NONE',  ( 5.500000000000000888, -6.047023035351379860, 10.93999599679679235 ) ) ;
#583 = CYLINDRICAL_SURFACE ( 'NONE', #373, 1.699999999999993072 ) ;
#584 = EDGE_CURVE ( 'NONE', #555, #551, #506, .T. ) ;
#585 = EDGE_LOOP ( 'NONE', ( #168, #436, #664, #388 ) ) ;
#586 = CIRCLE ( 'NONE', #148, 2.500000000000000000 ) ;
#587 = DIRECTION ( 'NONE',  ( -1.000000000000000000, -0.000000000000000000, -0.000000000000000000 ) ) ;
#588 = EDGE_CURVE ( 'NONE', #464, #409, #476, .T. ) ;
#589 = CARTESIAN_POINT ( 'NONE',  ( 11.00000000000000000, 0.5000000000000000000, 0.000000000000000000 ) ) ;
#590 = ORIENTED_EDGE ( 'NONE', *, *, #450, .T. ) ;
#591 = FACE_BOUND ( 'NONE', #377, .T. ) ;
#592 = DIRECTION ( 'NONE',  ( -1.000000000000000000, -0.000000000000000000, -0.000000000000000000 ) ) ;
#593 = FILL_AREA_STYLE ('',( #400 ) ) ;
#594 = LINE ( 'NONE', #653, #432 ) ;
#595 = CARTESIAN_POINT ( 'NONE',  ( 8.642548387571075352, 7.372254476744428686, 10.10155874716893187 ) ) ;
#596 = DIRECTION ( 'NONE',  ( -0.000000000000000000, -0.000000000000000000, -1.000000000000000000 ) ) ;
#597 = FACE_BOUND ( 'NONE', #31, .T. ) ;
#598 = CARTESIAN_POINT ( 'NONE',  ( 11.00000000000000000, -0.5000000000000000000, 5.979130371550700040 ) ) ;
#599 = DIRECTION ( 'NONE',  ( -1.000000000000000000, 0.000000000000000000, 0.000000000000000000 ) ) ;
#600 = EDGE_LOOP ( 'NONE', ( #152, #91, #35, #200 ) ) ;
#601 = CARTESIAN_POINT ( 'NONE',  ( 12.00000000000000000, -3.999999999999998224, -11.84271928232701221 ) ) ;
#602 = CARTESIAN_POINT ( 'NONE',  ( 5.500000000000000000, 12.49999999999999822, 9.239995996796798394 ) ) ;
#603 = VERTEX_POINT ( 'NONE', #445 ) ;
#604 = CARTESIAN_POINT ( 'NONE',  ( 7.819821992956308421, 10.38592699375481132, 6.957473942640117315 ) ) ;
#605 = ORIENTED_EDGE ( 'NONE', *, *, #277, .F. ) ;
#606 = EDGE_CURVE ( 'NONE', #489, #286, #211, .T. ) ;
#607 = CARTESIAN_POINT ( 'NONE',  ( 8.146837244998559768, 10.11428842705850961, 7.347116484019950988 ) ) ;
#608 = CARTESIAN_POINT ( 'NONE',  ( 5.500000000000000000, 5.799999999999998046, 9.239995996796798394 ) ) ;
#609 = EDGE_LOOP ( 'NONE', ( #25, #628, #327, #501, #395 ) ) ;
#610 = AXIS2_PLACEMENT_3D ( 'NONE', #729, #477, #180 ) ;
#611 = VECTOR ( 'NONE', #519, 1000.000000000000000 ) ;
#612 = CARTESIAN_POINT ( 'NONE',  ( 20.00000000000000000, 0.000000000000000000, 0.000000000000000000 ) ) ;
#613 = CARTESIAN_POINT ( 'NONE',  ( 5.500000000000000000, 0.5000000000000004441, 9.239995996796798394 ) ) ;
#614 = STYLED_ITEM ( 'NONE', ( #39 ), #130 ) ;
#615 = ORIENTED_EDGE ( 'NONE', *, *, #505, .F. ) ;
#616 = DIRECTION ( 'NONE',  ( -1.000000000000000000, -0.000000000000000000, -0.000000000000000000 ) ) ;
#617 = EDGE_CURVE ( 'NONE', #138, #428, #520, .T. ) ;
#618 = CARTESIAN_POINT ( 'NONE',  ( 3.789877416213309758, -8.454366581868713482, 9.211636480924889625 ) ) ;
#619 = ORIENTED_EDGE ( 'NONE', *, *, #556, .T. ) ;
#620 = ADVANCED_FACE ( 'NONE', ( #457, #674 ), #697, .T. ) ;
#621 = DIRECTION ( 'NONE',  ( 1.000000000000000000, 0.000000000000000000, 0.000000000000000000 ) ) ;
#622 = CARTESIAN_POINT ( 'NONE',  ( 3.802045529521011602, -8.660183830503051183, 9.018319165994082454 ) ) ;
#623 = AXIS2_PLACEMENT_3D ( 'NONE', #405, #162, #649 ) ;
#624 = EDGE_LOOP ( 'NONE', ( #673, #528 ) ) ;
#625 = DIRECTION ( 'NONE',  ( 0.000000000000000000, 0.000000000000000000, 1.000000000000000000 ) ) ;
#626 = VERTEX_POINT ( 'NONE', #59 ) ;
#627 = CARTESIAN_POINT ( 'NONE',  ( 20.00000000000000000, 0.000000000000000000, 12.50000000000000000 ) ) ;
#628 = ORIENTED_EDGE ( 'NONE', *, *, #64, .T. ) ;
#629 = CIRCLE ( 'NONE', #694, 1.699999999999993072 ) ;
#630 = DIRECTION ( 'NONE',  ( -1.000000000000000000, -0.000000000000000000, -0.000000000000000000 ) ) ;
#631 = ORIENTED_EDGE ( 'NONE', *, *, #588, .F. ) ;
#632 = DIRECTION ( 'NONE',  ( 0.000000000000000000, 0.000000000000000000, 1.000000000000000000 ) ) ;
#633 = AXIS2_PLACEMENT_3D ( 'NONE', #136, #616, #346 ) ;
#634 = CARTESIAN_POINT ( 'NONE',  ( 12.00000000000000000, 0.5000000000000000000, 5.979130371550700040 ) ) ;
#635 = CARTESIAN_POINT ( 'NONE',  ( 20.00000000000000000, 3.999999999999998224, -11.84271928232701221 ) ) ;
#636 = AXIS2_PLACEMENT_3D ( 'NONE', #42, #331, #159 ) ;
#637 = ORIENTED_EDGE ( 'NONE', *, *, #761, .T. ) ;
#638 = PLANE ( 'NONE',  #73 ) ;
#639 = CARTESIAN_POINT ( 'NONE',  ( 2.816193687792391653, 5.799999999999998934, 11.07293998900021315 ) ) ;
#640 = EDGE_CURVE ( 'NONE', #273, #164, #194, .T. ) ;
#641 = DIRECTION ( 'NONE',  ( -1.000000000000000000, -0.000000000000000000, -0.000000000000000000 ) ) ;
#642 = B_SPLINE_CURVE_WITH_KNOTS ( 'NONE', 3,
 ( #397, #198, #559, #19, #16, #319, #578, #254, #502, #249, #143, #101, #740, #311, #147, #498, #82, #682, #557, #258, #246, #493 ),
 .UNSPECIFIED., .F., .F.,
 ( 4, 2, 2, 2, 2, 2, 2, 2, 2, 2, 4 ),
 ( 8.673617379884035472E-19, 0.0004281843431285975487, 0.0008563686862571942299, 0.001712737372514385641, 0.002569106058771576835, 0.003425474745028768680, 0.004281843431285959657, 0.005138212117543151068, 0.005994580803800343347, 0.006422765146928941654, 0.006850949490057539962 ),
 .UNSPECIFIED. ) ;
#643 = DIRECTION ( 'NONE',  ( 0.000000000000000000, 1.000000000000000000, 0.000000000000000000 ) ) ;
#644 = CARTESIAN_POINT ( 'NONE',  ( 2.469738791027332070, 9.560007730004141280, 8.055356527115071330 ) ) ;
#645 = CARTESIAN_POINT ( 'NONE',  ( 11.00000000000000000, 3.999999999999996447, -11.84271928232701221 ) ) ;
#646 = EDGE_LOOP ( 'NONE', ( #739, #773, #542, #88 ) ) ;
#647 = CARTESIAN_POINT ( 'NONE',  ( 0.000000000000000000, 0.000000000000000000, 0.000000000000000000 ) ) ;
#648 = AXIS2_PLACEMENT_3D ( 'NONE', #434, #560, #326 ) ;
#649 = DIRECTION ( 'NONE',  ( 0.000000000000000000, 0.000000000000000000, -1.000000000000000000 ) ) ;
#650 = AXIS2_PLACEMENT_3D ( 'NONE', #333, #562, #22 ) ;
#651 = FACE_OUTER_BOUND ( 'NONE', #404, .T. ) ;
#652 = ORIENTED_EDGE ( 'NONE', *, *, #144, .F. ) ;
#653 = CARTESIAN_POINT ( 'NONE',  ( 0.000000000000000000, -0.5000000000000000000, 0.000000000000000000 ) ) ;
#654 = CARTESIAN_POINT ( 'NONE',  ( 8.574194682747375396, 7.067715158495111005, 10.31673537082601122 ) ) ;
#655 = DIRECTION ( 'NONE',  ( 0.000000000000000000, 1.231063965259953883E-16, 1.000000000000000000 ) ) ;
#656 = ORIENTED_EDGE ( 'NONE', *, *, #723, .T. ) ;
#657 = CARTESIAN_POINT ( 'NONE',  ( 8.299498112875349776, 6.123399622417673882, 10.90354344102958883 ) ) ;
#658 =( NAMED_UNIT ( * ) SI_UNIT ( $, .STERADIAN. ) SOLID_ANGLE_UNIT ( ) );
#659 = EDGE_LOOP ( 'NONE', ( #282, #590, #104, #81, #511 ) ) ;
#660 = DIRECTION ( 'NONE',  ( -0.000000000000000000, 1.231063965259953883E-16, 1.000000000000000000 ) ) ;
#661 = VECTOR ( 'NONE', #299, 1000.000000000000000 ) ;
#662 = CARTESIAN_POINT ( 'NONE',  ( 7.695107966789219489, 10.46550744083899076, 6.836738909048466262 ) ) ;
#663 = CARTESIAN_POINT ( 'NONE',  ( 11.00000000000000000, 4.000000000000000000, 0.000000000000000000 ) ) ;
#664 = ORIENTED_EDGE ( 'NONE', *, *, #450, .F. ) ;
#665 = CARTESIAN_POINT ( 'NONE',  ( 2.816193687792391653, 5.799999999999998934, 11.07293998900021315 ) ) ;
#666 = CARTESIAN_POINT ( 'NONE',  ( 0.000000000000000000, -0.5000000000000000000, 12.48999599679679839 ) ) ;
#667 = EDGE_CURVE ( 'NONE', #8, #626, #770, .T. ) ;
#668 = ORIENTED_EDGE ( 'NONE', *, *, #61, .T. ) ;
#669 = CARTESIAN_POINT ( 'NONE',  ( 5.867905363116689976, 10.96301419513503994, 6.005305346923352161 ) ) ;
#670 = EDGE_CURVE ( 'NONE', #470, #385, #572, .T. ) ;
#671 = SURFACE_STYLE_FILL_AREA ( #120 ) ;
#672 = VECTOR ( 'NONE', #50, 1000.000000000000000 ) ;
#673 = ORIENTED_EDGE ( 'NONE', *, *, #272, .F. ) ;
#674 = FACE_OUTER_BOUND ( 'NONE', #209, .T. ) ;
#675 = DIRECTION ( 'NONE',  ( -0.000000000000000000, 0.000000000000000000, 1.000000000000000000 ) ) ;
#676 = ORIENTED_EDGE ( 'NONE', *, *, #314, .T. ) ;
#677 = AXIS2_PLACEMENT_3D ( 'NONE', #26, #678, #315 ) ;
#678 = DIRECTION ( 'NONE',  ( 1.000000000000000000, -0.000000000000000000, 0.000000000000000000 ) ) ;
#679 = CARTESIAN_POINT ( 'NONE',  ( 4.200354521318326206, -9.488958526077377442, 8.137896423440148297 ) ) ;
#680 = ORIENTED_EDGE ( 'NONE', *, *, #359, .F. ) ;
#681 = PRODUCT_DEFINITION ( 'UNKNOWN', '', #248, #539 ) ;
#682 = CARTESIAN_POINT ( 'NONE',  ( 6.184265603149294854, -9.864333673809305481, 7.677985924166762288 ) ) ;
#683 = DIRECTION ( 'NONE',  ( 1.000000000000000000, 0.000000000000000000, 0.000000000000000000 ) ) ;
#684 = VERTEX_POINT ( 'NONE', #43 ) ;
#685 = CARTESIAN_POINT ( 'NONE',  ( 12.00000000000000000, 0.000000000000000000, 0.000000000000000000 ) ) ;
#686 = DIRECTION ( 'NONE',  ( 1.000000000000000000, 0.000000000000000000, 0.000000000000000000 ) ) ;
#687 = CIRCLE ( 'NONE', #406, 12.50000000000000000 ) ;
#688 = VERTEX_POINT ( 'NONE', #114 ) ;
#689 = CARTESIAN_POINT ( 'NONE',  ( 7.199999999999994849, 5.799999999999998046, 9.239995996796798394 ) ) ;
#690 = EDGE_CURVE ( 'NONE', #286, #8, #733, .T. ) ;
#691 = ORIENTED_EDGE ( 'NONE', *, *, #396, .F. ) ;
#692 = CARTESIAN_POINT ( 'NONE',  ( 12.00000000000000000, 0.000000000000000000, 0.000000000000000000 ) ) ;
#693 = VERTEX_POINT ( 'NONE', #292 ) ;
#694 = AXIS2_PLACEMENT_3D ( 'NONE', #401, #643, #537 ) ;
#695 = CARTESIAN_POINT ( 'NONE',  ( 2.594269718888023046, 9.788392466276320647, 7.776238776093444827 ) ) ;
#696 = AXIS2_PLACEMENT_3D ( 'NONE', #243, #7, #295 ) ;
#697 = CYLINDRICAL_SURFACE ( 'NONE', #633, 12.50000000000000000 ) ;
#698 = ADVANCED_FACE ( 'NONE', ( #597, #221 ), #47, .T. ) ;
#699 = CARTESIAN_POINT ( 'NONE',  ( 12.00000000000000000, 0.000000000000000000, 12.50000000000000000 ) ) ;
#700 = CARTESIAN_POINT ( 'NONE',  ( 11.00000000000000000, 0.000000000000000000, 0.000000000000000000 ) ) ;
#701 = ORIENTED_EDGE ( 'NONE', *, *, #29, .T. ) ;
#702 = PRODUCT_RELATED_PRODUCT_CATEGORY ( 'part', '', ( #375 ) ) ;
#703 = CARTESIAN_POINT ( 'NONE',  ( 20.00000000000000000, 0.000000000000000000, 0.000000000000000000 ) ) ;
#704 = CARTESIAN_POINT ( 'NONE',  ( 2.247593342192220067, 8.380030454418378127, 9.276943577187179102 ) ) ;
#705 = CARTESIAN_POINT ( 'NONE',  ( 5.500000000000000000, 12.49999999999999822, 7.539995996796805322 ) ) ;
#706 = DIRECTION ( 'NONE',  ( -0.000000000000000000, 0.000000000000000000, 1.000000000000000000 ) ) ;
#707 = CARTESIAN_POINT ( 'NONE',  ( 20.00000000000000000, 0.000000000000000000, 0.000000000000000000 ) ) ;
#708 = LINE ( 'NONE', #341, #98 ) ;
#709 = ORIENTED_EDGE ( 'NONE', *, *, #533, .T. ) ;
#710 = DIRECTION ( 'NONE',  ( 0.000000000000000000, 1.000000000000000000, 0.000000000000000000 ) ) ;
#711 = CARTESIAN_POINT ( 'NONE',  ( 8.711059840844841418, 7.818010951425619304, 9.755209431964285471 ) ) ;
#712 = EDGE_CURVE ( 'NONE', #273, #409, #764, .T. ) ;
#713 = AXIS2_PLACEMENT_3D ( 'NONE', #759, #76, #40 ) ;
#714 = CARTESIAN_POINT ( 'NONE',  ( 12.00000000000000000, -4.000000000000000000, -14.09125378477388679 ) ) ;
#715 = ORIENTED_EDGE ( 'NONE', *, *, #384, .T. ) ;
#716 = CARTESIAN_POINT ( 'NONE',  ( 4.541444692566812158, 10.89456767559785000, 6.128950145510857261 ) ) ;
#717 = DIRECTION ( 'NONE',  ( -0.000000000000000000, 1.000000000000000000, -0.000000000000000000 ) ) ;
#718 = VERTEX_POINT ( 'NONE', #55 ) ;
#719 = DIRECTION ( 'NONE',  ( 1.000000000000000000, -0.000000000000000000, 0.000000000000000000 ) ) ;
#720 = CARTESIAN_POINT ( 'NONE',  ( 8.321943289485183470, 9.910560218021451817, 7.619694690764055700 ) ) ;
#721 = CARTESIAN_POINT ( 'NONE',  ( 5.500000000000000888, -6.047023035351379860, 10.93999599679679235 ) ) ;
#722 = ORIENTED_EDGE ( 'NONE', *, *, #712, .F. ) ;
#723 = EDGE_CURVE ( 'NONE', #693, #195, #594, .T. ) ;
#724 = AXIS2_PLACEMENT_3D ( 'NONE', #119, #354, #298 ) ;
#725 = CARTESIAN_POINT ( 'NONE',  ( 0.000000000000000000, 0.5000000000000000000, 12.48999599679679839 ) ) ;
#726 = CARTESIAN_POINT ( 'NONE',  ( 20.00000000000000000, 0.000000000000000000, 2.500000000000000000 ) ) ;
#727 = ORIENTED_EDGE ( 'NONE', *, *, #712, .T. ) ;
#728 = ADVANCED_FACE ( 'NONE', ( #174 ), #274, .F. ) ;
#729 = CARTESIAN_POINT ( 'NONE',  ( 5.500000000000000000, 12.49999999999999822, 9.239995996796798394 ) ) ;
#730 = CARTESIAN_POINT ( 'NONE',  ( 5.500000000000000000, -0.5000000000000004441, 10.93999599679679235 ) ) ;
#731 = CARTESIAN_POINT ( 'NONE',  ( 12.00000000000000000, -4.000000000000000000, -4.472135954999584939 ) ) ;
#732 = FACE_OUTER_BOUND ( 'NONE', #109, .T. ) ;
#733 = CIRCLE ( 'NONE', #466, 12.50000000000000000 ) ;
#734 = ORIENTED_EDGE ( 'NONE', *, *, #75, .T. ) ;
#735 = B_SPLINE_CURVE_WITH_KNOTS ( 'NONE', 3,
 ( #383, #369, #77, #499, #145, #87, #738, #193, #679, #322, #747, #622, #618, #27, #259, #80, #141, #316, #563, #30, #24, #510, #256, #111, #343, #455, #213, #582 ),
 .UNSPECIFIED., .F., .F.,
 ( 4, 2, 2, 2, 2, 2, 2, 2, 2, 2, 2, 2, 2, 4 ),
 ( 0.006850949490057539962, 0.007278340320976861740, 0.007705731151896183517, 0.008133121982815504428, 0.008560512813734825338, 0.009415294475573472363, 0.01027007613741211939, 0.01112485779925076468, 0.01197963946108940997, 0.01240703029200873435, 0.01283442112292805873, 0.01326181195384738137, 0.01347550736930704443, 0.01368920278476670749 ),
 .UNSPECIFIED. ) ;
#736 = LINE ( 'NONE', #442, #265 ) ;
#737 = AXIS2_PLACEMENT_3D ( 'NONE', #478, #717, #176 ) ;
#738 = CARTESIAN_POINT ( 'NONE',  ( 4.469732506865590871, -9.702373725771490598, 7.881972306567227804 ) ) ;
#739 = ORIENTED_EDGE ( 'NONE', *, *, #324, .F. ) ;
#740 = CARTESIAN_POINT ( 'NONE',  ( 7.197363199976122061, -8.663577648096026707, 9.014999816602619731 ) ) ;
#741 = DIRECTION ( 'NONE',  ( 0.000000000000000000, -1.000000000000000000, 0.000000000000000000 ) ) ;
#742 = ORIENTED_EDGE ( 'NONE', *, *, #546, .F. ) ;
#743 = CARTESIAN_POINT ( 'NONE',  ( 5.500000000000000000, 12.49999999999999822, 10.93999599679679235 ) ) ;
#744 = FACE_BOUND ( 'NONE', #185, .T. ) ;
#745 = ORIENTED_EDGE ( 'NONE', *, *, #124, .T. ) ;
#746 = ADVANCED_FACE ( 'NONE', ( #161, #591 ), #462, .T. ) ;
#747 = CARTESIAN_POINT ( 'NONE',  ( 3.903705100268455741, -9.056457593396272543, 8.620292362609148995 ) ) ;
#748 = AXIS2_PLACEMENT_3D ( 'NONE', #689, #741, #447 ) ;
#749 = ORIENTED_EDGE ( 'NONE', *, *, #328, .F. ) ;
#750 = ADVANCED_BREP_SHAPE_REPRESENTATION ( 'RFhold', ( #130, #497 ), #389 ) ;
#751 = EDGE_CURVE ( 'NONE', #684, #156, #629, .T. ) ;
#752 = AXIS2_PLACEMENT_3D ( 'NONE', #280, #411, #471 ) ;
#753 = AXIS2_PLACEMENT_3D ( 'NONE', #522, #167, #278 ) ;
#754 = CARTESIAN_POINT ( 'NONE',  ( 11.00000000000000000, 0.000000000000000000, 0.000000000000000000 ) ) ;
#755 = VERTEX_POINT ( 'NONE', #543 ) ;
#756 = FACE_OUTER_BOUND ( 'NONE', #15, .T. ) ;
#757 = LINE ( 'NONE', #394, #37 ) ;
#758 = EDGE_CURVE ( 'NONE', #154, #156, #416, .T. ) ;
#759 = CARTESIAN_POINT ( 'NONE',  ( 30.00000000000000000, 0.000000000000000000, 0.000000000000000000 ) ) ;
#760 = CARTESIAN_POINT ( 'NONE',  ( 5.500000000000000000, 12.49999999999999822, 9.239995996796798394 ) ) ;
#761 = EDGE_CURVE ( 'NONE', #688, #489, #325, .T. ) ;
#762 = DIRECTION ( 'NONE',  ( -0.000000000000000000, 1.000000000000000000, -0.000000000000000000 ) ) ;
#763 = CIRCLE ( 'NONE', #423, 2.500000000000000000 ) ;
#764 = LINE ( 'NONE', #767, #771 ) ;
#765 = LINE ( 'NONE', #52, #381 ) ;
#766 = ORIENTED_EDGE ( 'NONE', *, *, #670, .T. ) ;
#767 = CARTESIAN_POINT ( 'NONE',  ( 20.00000000000000000, 0.000000000000000000, 12.50000000000000000 ) ) ;
#768 = DIRECTION ( 'NONE',  ( 0.000000000000000000, 0.000000000000000000, -1.000000000000000000 ) ) ;
#769 = CARTESIAN_POINT ( 'NONE',  ( 5.500000000000000000, 0.5000000000000004441, 9.239995996796798394 ) ) ;
#770 = LINE ( 'NONE', #581, #410 ) ;
#771 = VECTOR ( 'NONE', #529, 1000.000000000000000 ) ;
#772 = CARTESIAN_POINT ( 'NONE',  ( 8.752561688118593253, 8.398395248551112857, 9.260318802935465499 ) ) ;
#773 = ORIENTED_EDGE ( 'NONE', *, *, #481, .T. ) ;
#774 = AXIS2_PLACEMENT_3D ( 'NONE', #663, #232, #655 ) ;
#775 = DIRECTION ( 'NONE',  ( 0.000000000000000000, 0.000000000000000000, -1.000000000000000000 ) ) ;
ENDSEC;
END-ISO-10303-21;
