ISO-10303-21;
HEADER;
FILE_DESCRIPTION (( 'STEP AP214' ),
    '1' );
FILE_NAME ('RFpiller.STEP',
    '2026-06-24T00:21:40',
    ( '' ),
    ( '' ),
    'SwSTEP 2.0',
    'SolidWorks 2024',
    '' );
FILE_SCHEMA (( 'AUTOMOTIVE_DESIGN' ));
ENDSEC;

DATA;
#1 = EDGE_CURVE ( 'NONE', #276, #92, #195, .T. ) ;
#2 = DIRECTION ( 'NONE',  ( -1.000000000000000000, 0.000000000000000000, 0.000000000000000000 ) ) ;
#3 = EDGE_LOOP ( 'NONE', ( #502, #167 ) ) ;
#4 = PLANE ( 'NONE',  #506 ) ;
#5 = CIRCLE ( 'NONE', #496, 8.000000000000000000 ) ;
#6 = CARTESIAN_POINT ( 'NONE',  ( 172.0000000000000000, 0.000000000000000000, 0.000000000000000000 ) ) ;
#7 = AXIS2_PLACEMENT_3D ( 'NONE', #503, #42, #127 ) ;
#8 = ORIENTED_EDGE ( 'NONE', *, *, #327, .F. ) ;
#9 = CIRCLE ( 'NONE', #134, 8.000000000000000000 ) ;
#10 = DIRECTION ( 'NONE',  ( 1.000000000000000000, 0.000000000000000000, -0.000000000000000000 ) ) ;
#11 = ORIENTED_EDGE ( 'NONE', *, *, #115, .T. ) ;
#12 = CARTESIAN_POINT ( 'NONE',  ( 108.0000000000000142, -3.872983346207417021, -7.000000000000000000 ) ) ;
#13 = CARTESIAN_POINT ( 'NONE',  ( 0.000000000000000000, 0.000000000000000000, 0.000000000000000000 ) ) ;
#14 =( GEOMETRIC_REPRESENTATION_CONTEXT ( 3 ) GLOBAL_UNCERTAINTY_ASSIGNED_CONTEXT ( ( #325 ) ) GLOBAL_UNIT_ASSIGNED_CONTEXT ( ( #452, #77, #293 ) ) REPRESENTATION_CONTEXT ( 'NONE', 'WORKASPACE' ) );
#15 = EDGE_LOOP ( 'NONE', ( #11, #187, #475, #472 ) ) ;
#16 = DIRECTION ( 'NONE',  ( 0.000000000000000000, 0.000000000000000000, 1.000000000000000000 ) ) ;
#17 = ADVANCED_FACE ( 'NONE', ( #491 ), #420, .F. ) ;
#18 = ORIENTED_EDGE ( 'NONE', *, *, #262, .F. ) ;
#19 = DIRECTION ( 'NONE',  ( 0.000000000000000000, 0.000000000000000000, 1.000000000000000000 ) ) ;
#20 = MANIFOLD_SOLID_BREP ( '\X2\cef7\X0\-\X2\b3cccd9c\X0\1', #490 ) ;
#21 = DIRECTION ( 'NONE',  ( -1.000000000000000000, -0.000000000000000000, -0.000000000000000000 ) ) ;
#22 = ORIENTED_EDGE ( 'NONE', *, *, #498, .F. ) ;
#23 = DIRECTION ( 'NONE',  ( 1.000000000000000000, 0.000000000000000000, 0.000000000000000000 ) ) ;
#24 = EDGE_CURVE ( 'NONE', #385, #276, #388, .T. ) ;
#25 = ORIENTED_EDGE ( 'NONE', *, *, #103, .F. ) ;
#26 = CARTESIAN_POINT ( 'NONE',  ( 130.0000000000000000, 0.000000000000000000, 0.000000000000000000 ) ) ;
#27 = CARTESIAN_POINT ( 'NONE',  ( 108.0000000000000142, 3.872983346207417021, -7.000000000000000000 ) ) ;
#28 = AXIS2_PLACEMENT_3D ( 'NONE', #464, #10, #46 ) ;
#29 = FILL_AREA_STYLE ('',( #284 ) ) ;
#30 = DIRECTION ( 'NONE',  ( 0.000000000000000000, 0.000000000000000000, -1.000000000000000000 ) ) ;
#31 = DIRECTION ( 'NONE',  ( 0.000000000000000000, 0.000000000000000000, -1.000000000000000000 ) ) ;
#32 = PRODUCT_DEFINITION_CONTEXT ( 'detailed design', #128, 'design' ) ;
#33 =( LENGTH_UNIT ( ) NAMED_UNIT ( * ) SI_UNIT ( .MILLI., .METRE. ) );
#34 = ADVANCED_FACE ( 'NONE', ( #71 ), #205, .T. ) ;
#35 =( NAMED_UNIT ( * ) SI_UNIT ( $, .STERADIAN. ) SOLID_ANGLE_UNIT ( ) );
#36 = AXIS2_PLACEMENT_3D ( 'NONE', #6, #91, #172 ) ;
#37 = CIRCLE ( 'NONE', #341, 8.000000000000000000 ) ;
#38 = AXIS2_PLACEMENT_3D ( 'NONE', #48, #125, #295 ) ;
#39 = ADVANCED_FACE ( 'NONE', ( #493 ), #530, .T. ) ;
#40 = ORIENTED_EDGE ( 'NONE', *, *, #427, .T. ) ;
#41 = VECTOR ( 'NONE', #486, 1000.000000000000000 ) ;
#42 = DIRECTION ( 'NONE',  ( 1.000000000000000000, 0.000000000000000000, 0.000000000000000000 ) ) ;
#43 = ORIENTED_EDGE ( 'NONE', *, *, #442, .T. ) ;
#44 = DIRECTION ( 'NONE',  ( 1.000000000000000000, 0.000000000000000000, 0.000000000000000000 ) ) ;
#45 = AXIS2_PLACEMENT_3D ( 'NONE', #449, #373, #31 ) ;
#46 = DIRECTION ( 'NONE',  ( -0.000000000000000000, 0.000000000000000000, -1.000000000000000000 ) ) ;
#47 = VERTEX_POINT ( 'NONE', #251 ) ;
#48 = CARTESIAN_POINT ( 'NONE',  ( 108.0000000000000142, 0.000000000000000000, 0.000000000000000000 ) ) ;
#49 = DIRECTION ( 'NONE',  ( 0.000000000000000000, 0.000000000000000000, 1.000000000000000000 ) ) ;
#50 = ORIENTED_EDGE ( 'NONE', *, *, #460, .F. ) ;
#51 = DIRECTION ( 'NONE',  ( -1.000000000000000000, -0.000000000000000000, -0.000000000000000000 ) ) ;
#52 = LINE ( 'NONE', #90, #518 ) ;
#53 = ORIENTED_EDGE ( 'NONE', *, *, #352, .F. ) ;
#54 = CARTESIAN_POINT ( 'NONE',  ( 12.00000000000000000, 3.061616997868378704E-16, -2.499999999999996447 ) ) ;
#55 = AXIS2_PLACEMENT_3D ( 'NONE', #59, #298, #309 ) ;
#56 = LINE ( 'NONE', #511, #252 ) ;
#57 = EDGE_LOOP ( 'NONE', ( #395, #176, #97, #280, #18, #378, #418, #184, #22, #8, #392, #123 ) ) ;
#58 = CARTESIAN_POINT ( 'NONE',  ( 172.0000000000000000, 0.000000000000000000, 0.000000000000000000 ) ) ;
#59 = CARTESIAN_POINT ( 'NONE',  ( 130.0000000000000000, 27.00000000000000355, -12.00000000000000000 ) ) ;
#60 = ADVANCED_FACE ( 'NONE', ( #411 ), #328, .T. ) ;
#61 = EDGE_LOOP ( 'NONE', ( #312, #264 ) ) ;
#62 = PLANE ( 'NONE',  #106 ) ;
#63 = ORIENTED_EDGE ( 'NONE', *, *, #477, .F. ) ;
#64 = CARTESIAN_POINT ( 'NONE',  ( -1.224646799147354440E-16, 0.000000000000000000, 0.000000000000000000 ) ) ;
#65 = VECTOR ( 'NONE', #393, 1000.000000000000000 ) ;
#66 = ORIENTED_EDGE ( 'NONE', *, *, #273, .T. ) ;
#67 = FACE_OUTER_BOUND ( 'NONE', #401, .T. ) ;
#68 = ADVANCED_FACE ( 'NONE', ( #223 ), #468, .T. ) ;
#69 = EDGE_LOOP ( 'NONE', ( #140, #212, #461, #305 ) ) ;
#70 = CARTESIAN_POINT ( 'NONE',  ( 172.0000000000000000, 0.000000000000000000, 2.500000000000000000 ) ) ;
#71 = FACE_OUTER_BOUND ( 'NONE', #109, .T. ) ;
#72 = DIRECTION ( 'NONE',  ( -0.5150380749100550437, 0.000000000000000000, 0.8571673007021117785 ) ) ;
#73 = AXIS2_PLACEMENT_3D ( 'NONE', #186, #86, #261 ) ;
#74 = SURFACE_SIDE_STYLE ('',( #118 ) ) ;
#75 = EDGE_CURVE ( 'NONE', #366, #399, #198, .T. ) ;
#76 = DIRECTION ( 'NONE',  ( 1.000000000000000000, 0.000000000000000000, -0.000000000000000000 ) ) ;
#77 =( NAMED_UNIT ( * ) PLANE_ANGLE_UNIT ( ) SI_UNIT ( $, .RADIAN. ) );
#78 = AXIS2_PLACEMENT_3D ( 'NONE', #370, #76, #258 ) ;
#79 = CIRCLE ( 'NONE', #180, 8.000000000000000000 ) ;
#80 = ADVANCED_FACE ( 'NONE', ( #428 ), #335, .T. ) ;
#81 =( GEOMETRIC_REPRESENTATION_CONTEXT ( 3 ) GLOBAL_UNCERTAINTY_ASSIGNED_CONTEXT ( ( #451 ) ) GLOBAL_UNIT_ASSIGNED_CONTEXT ( ( #458, #470, #292 ) ) REPRESENTATION_CONTEXT ( 'NONE', 'WORKASPACE' ) );
#82 = ORIENTED_EDGE ( 'NONE', *, *, #119, .T. ) ;
#83 = SURFACE_SIDE_STYLE ('',( #513 ) ) ;
#84 = ORIENTED_EDGE ( 'NONE', *, *, #216, .F. ) ;
#85 = CARTESIAN_POINT ( 'NONE',  ( 0.000000000000000000, 0.000000000000000000, 0.000000000000000000 ) ) ;
#86 = DIRECTION ( 'NONE',  ( 1.000000000000000000, 0.000000000000000000, -0.000000000000000000 ) ) ;
#87 = EDGE_CURVE ( 'NONE', #515, #399, #52, .T. ) ;
#88 = ORIENTED_EDGE ( 'NONE', *, *, #374, .F. ) ;
#89 = CARTESIAN_POINT ( 'NONE',  ( 160.0000000000000000, 0.000000000000000000, 0.000000000000000000 ) ) ;
#90 = CARTESIAN_POINT ( 'NONE',  ( 0.000000000000000000, 3.061616997868379197E-16, -2.499999999999996891 ) ) ;
#91 = DIRECTION ( 'NONE',  ( -1.000000000000000000, -0.000000000000000000, -0.000000000000000000 ) ) ;
#92 = VERTEX_POINT ( 'NONE', #146 ) ;
#93 = DIRECTION ( 'NONE',  ( -1.000000000000000000, -0.000000000000000000, -0.000000000000000000 ) ) ;
#94 = CIRCLE ( 'NONE', #455, 2.499999999999996447 ) ;
#95 = EDGE_CURVE ( 'NONE', #416, #310, #5, .T. ) ;
#96 = DIRECTION ( 'NONE',  ( 0.000000000000000000, 0.000000000000000000, 1.000000000000000000 ) ) ;
#97 = ORIENTED_EDGE ( 'NONE', *, *, #413, .T. ) ;
#98 = CARTESIAN_POINT ( 'NONE',  ( -1.224646799147354440E-16, 0.000000000000000000, 2.499999999999997780 ) ) ;
#99 = CARTESIAN_POINT ( 'NONE',  ( 108.0000000000000142, 27.00000000000000355, -7.000000000000000000 ) ) ;
#100 = ORIENTED_EDGE ( 'NONE', *, *, #536, .T. ) ;
#101 = LINE ( 'NONE', #275, #372 ) ;
#102 = DIRECTION ( 'NONE',  ( -0.5150380749100550437, 1.049727191138617956E-16, -0.8571673007021117785 ) ) ;
#103 = EDGE_CURVE ( 'NONE', #240, #482, #363, .T. ) ;
#104 = ORIENTED_EDGE ( 'NONE', *, *, #130, .T. ) ;
#105 =( NAMED_UNIT ( * ) SI_UNIT ( $, .STERADIAN. ) SOLID_ANGLE_UNIT ( ) );
#106 = AXIS2_PLACEMENT_3D ( 'NONE', #483, #402, #191 ) ;
#107 = CIRCLE ( 'NONE', #38, 8.000000000000000000 ) ;
#108 = LINE ( 'NONE', #437, #289 ) ;
#109 = EDGE_LOOP ( 'NONE', ( #121, #539, #131 ) ) ;
#110 = CARTESIAN_POINT ( 'NONE',  ( 130.0000000000000000, 3.872983346207416133, -7.000000000000000000 ) ) ;
#111 = PRODUCT_CONTEXT ( 'NONE', #197, 'mechanical' ) ;
#112 = AXIS2_PLACEMENT_3D ( 'NONE', #444, #194, #16 ) ;
#113 = CARTESIAN_POINT ( 'NONE',  ( 130.0000000000000000, 3.872983346207417021, 7.000000000000000000 ) ) ;
#114 = CARTESIAN_POINT ( 'NONE',  ( 130.0000000000000000, -3.872983346207416133, -7.000000000000000000 ) ) ;
#115 = EDGE_CURVE ( 'NONE', #375, #256, #135, .T. ) ;
#116 = CIRCLE ( 'NONE', #330, 8.000000000000000000 ) ;
#117 = PRESENTATION_STYLE_ASSIGNMENT (( #494 ) ) ;
#118 = SURFACE_STYLE_FILL_AREA ( #446 ) ;
#119 = EDGE_CURVE ( 'NONE', #534, #435, #56, .T. ) ;
#120 = VECTOR ( 'NONE', #423, 1000.000000000000000 ) ;
#121 = ORIENTED_EDGE ( 'NONE', *, *, #327, .T. ) ;
#122 = AXIS2_PLACEMENT_3D ( 'NONE', #58, #23, #237 ) ;
#123 = ORIENTED_EDGE ( 'NONE', *, *, #273, .F. ) ;
#124 = DIRECTION ( 'NONE',  ( 1.000000000000000000, 0.000000000000000000, 0.000000000000000000 ) ) ;
#125 = DIRECTION ( 'NONE',  ( 1.000000000000000000, 0.000000000000000000, -0.000000000000000000 ) ) ;
#126 = VERTEX_POINT ( 'NONE', #183 ) ;
#127 = DIRECTION ( 'NONE',  ( 0.000000000000000000, 0.000000000000000000, -1.000000000000000000 ) ) ;
#128 = APPLICATION_CONTEXT ( 'automotive_design' ) ;
#129 = DIRECTION ( 'NONE',  ( -1.000000000000000000, -0.000000000000000000, -0.000000000000000000 ) ) ;
#130 = EDGE_CURVE ( 'NONE', #302, #435, #412, .T. ) ;
#131 = ORIENTED_EDGE ( 'NONE', *, *, #141, .T. ) ;
#132 = AXIS2_PLACEMENT_3D ( 'NONE', #362, #150, #19 ) ;
#133 = CARTESIAN_POINT ( 'NONE',  ( 160.0000000000000000, 3.872983346207416133, 7.000000000000000000 ) ) ;
#134 = AXIS2_PLACEMENT_3D ( 'NONE', #405, #367, #30 ) ;
#135 = LINE ( 'NONE', #227, #215 ) ;
#136 = AXIS2_PLACEMENT_3D ( 'NONE', #359, #369, #242 ) ;
#137 = ORIENTED_EDGE ( 'NONE', *, *, #262, .T. ) ;
#138 = DIRECTION ( 'NONE',  ( 0.000000000000000000, 0.000000000000000000, -1.000000000000000000 ) ) ;
#139 = DIRECTION ( 'NONE',  ( 0.000000000000000000, 0.000000000000000000, 1.000000000000000000 ) ) ;
#140 = ORIENTED_EDGE ( 'NONE', *, *, #282, .F. ) ;
#141 = EDGE_CURVE ( 'NONE', #523, #256, #474, .T. ) ;
#142 = LINE ( 'NONE', #222, #430 ) ;
#143 = DIRECTION ( 'NONE',  ( -1.000000000000000000, 0.000000000000000000, -0.000000000000000000 ) ) ;
#144 = ORIENTED_EDGE ( 'NONE', *, *, #163, .F. ) ;
#145 = CARTESIAN_POINT ( 'NONE',  ( 160.0000000000000000, 9.797174393178825657E-16, -8.000000000000000000 ) ) ;
#146 = CARTESIAN_POINT ( 'NONE',  ( 130.0000000000000000, 9.797174393178825657E-16, -8.000000000000000000 ) ) ;
#147 = ORIENTED_EDGE ( 'NONE', *, *, #1, .T. ) ;
#148 = DIRECTION ( 'NONE',  ( -1.000000000000000000, -0.000000000000000000, -0.000000000000000000 ) ) ;
#149 = EDGE_LOOP ( 'NONE', ( #381, #469 ) ) ;
#150 = DIRECTION ( 'NONE',  ( -1.000000000000000000, -0.000000000000000000, -0.000000000000000000 ) ) ;
#151 = AXIS2_PLACEMENT_3D ( 'NONE', #326, #527, #285 ) ;
#152 = CARTESIAN_POINT ( 'NONE',  ( 108.0000000000000142, 3.872983346207417021, 7.000000000000000000 ) ) ;
#153 = ORIENTED_EDGE ( 'NONE', *, *, #374, .T. ) ;
#154 = CARTESIAN_POINT ( 'NONE',  ( 108.0000000000000142, 0.000000000000000000, 0.000000000000000000 ) ) ;
#155 =( NAMED_UNIT ( * ) PLANE_ANGLE_UNIT ( ) SI_UNIT ( $, .RADIAN. ) );
#156 = AXIS2_PLACEMENT_3D ( 'NONE', #348, #2, #543 ) ;
#157 = AXIS2_PLACEMENT_3D ( 'NONE', #379, #467, #462 ) ;
#158 = SURFACE_SIDE_STYLE ('',( #535 ) ) ;
#159 = CARTESIAN_POINT ( 'NONE',  ( 108.0000000000000142, 0.000000000000000000, 8.000000000000000000 ) ) ;
#160 = CIRCLE ( 'NONE', #122, 2.500000000000000000 ) ;
#161 = FILL_AREA_STYLE_COLOUR ( '', #317 ) ;
#162 = CARTESIAN_POINT ( 'NONE',  ( 160.0000000000000000, 0.000000000000000000, 8.000000000000000000 ) ) ;
#163 = EDGE_CURVE ( 'NONE', #331, #350, #492, .T. ) ;
#164 = ORIENTED_EDGE ( 'NONE', *, *, #521, .T. ) ;
#165 = EDGE_CURVE ( 'NONE', #443, #515, #94, .T. ) ;
#166 = PRESENTATION_LAYER_ASSIGNMENT (  '', '', ( #207 ) ) ;
#167 = ORIENTED_EDGE ( 'NONE', *, *, #460, .T. ) ;
#168 = PRESENTATION_STYLE_ASSIGNMENT (( #265 ) ) ;
#169 = ORIENTED_EDGE ( 'NONE', *, *, #200, .T. ) ;
#170 = CYLINDRICAL_SURFACE ( 'NONE', #297, 2.499999999999996891 ) ;
#171 = ADVANCED_FACE ( 'NONE', ( #424 ), #345, .T. ) ;
#172 = DIRECTION ( 'NONE',  ( 0.000000000000000000, 0.000000000000000000, 1.000000000000000000 ) ) ;
#173 = ORIENTED_EDGE ( 'NONE', *, *, #165, .T. ) ;
#174 = FACE_OUTER_BOUND ( 'NONE', #149, .T. ) ;
#175 = DIRECTION ( 'NONE',  ( 0.000000000000000000, 0.000000000000000000, -1.000000000000000000 ) ) ;
#176 = ORIENTED_EDGE ( 'NONE', *, *, #24, .F. ) ;
#177 = CARTESIAN_POINT ( 'NONE',  ( 160.0000000000000000, 0.000000000000000000, 0.000000000000000000 ) ) ;
#178 = COLOUR_RGB ( '',0.8980392156862745390, 0.9176470588235293713, 0.9294117647058823817 ) ;
#179 = CARTESIAN_POINT ( 'NONE',  ( 0.000000000000000000, 0.000000000000000000, 2.499999999999996891 ) ) ;
#180 = AXIS2_PLACEMENT_3D ( 'NONE', #26, #396, #440 ) ;
#181 = ADVANCED_FACE ( 'NONE', ( #301 ), #220, .T. ) ;
#182 = EDGE_LOOP ( 'NONE', ( #259, #541, #173 ) ) ;
#183 = CARTESIAN_POINT ( 'NONE',  ( 13.50215154756890001, -3.307073334866546138E-15, 0.000000000000000000 ) ) ;
#184 = ORIENTED_EDGE ( 'NONE', *, *, #95, .T. ) ;
#185 = DIRECTION ( 'NONE',  ( 0.000000000000000000, -1.000000000000000000, 0.000000000000000000 ) ) ;
#186 = CARTESIAN_POINT ( 'NONE',  ( 108.0000000000000142, 0.000000000000000000, 0.000000000000000000 ) ) ;
#187 = ORIENTED_EDGE ( 'NONE', *, *, #141, .F. ) ;
#188 = FACE_OUTER_BOUND ( 'NONE', #495, .T. ) ;
#189 = CIRCLE ( 'NONE', #438, 8.000000000000000000 ) ;
#190 = EDGE_LOOP ( 'NONE', ( #169, #66, #354 ) ) ;
#191 = DIRECTION ( 'NONE',  ( 1.000000000000000000, 0.000000000000000000, 0.000000000000000000 ) ) ;
#192 = ADVANCED_FACE ( 'NONE', ( #384 ), #528, .F. ) ;
#193 = ORIENTED_EDGE ( 'NONE', *, *, #163, .T. ) ;
#194 = DIRECTION ( 'NONE',  ( -1.000000000000000000, -0.000000000000000000, -0.000000000000000000 ) ) ;
#195 = LINE ( 'NONE', #250, #41 ) ;
#196 = DIRECTION ( 'NONE',  ( 1.000000000000000000, 0.000000000000000000, 0.000000000000000000 ) ) ;
#197 = APPLICATION_CONTEXT ( 'automotive_design' ) ;
#198 = CIRCLE ( 'NONE', #450, 2.499999999999997780 ) ;
#199 = VECTOR ( 'NONE', #332, 1000.000000000000000 ) ;
#200 = EDGE_CURVE ( 'NONE', #333, #92, #116, .T. ) ;
#201 = PRESENTATION_STYLE_ASSIGNMENT (( #410 ) ) ;
#202 = LINE ( 'NONE', #489, #318 ) ;
#203 =( LENGTH_UNIT ( ) NAMED_UNIT ( * ) SI_UNIT ( .MILLI., .METRE. ) );
#204 = UNCERTAINTY_MEASURE_WITH_UNIT (LENGTH_MEASURE( 1.000000000000000082E-05 ), #33, 'distance_accuracy_value', 'NONE');
#205 = PLANE ( 'NONE',  #78 ) ;
#206 = EDGE_CURVE ( 'NONE', #443, #366, #432, .T. ) ;
#207 = STYLED_ITEM ( 'NONE', ( #201 ), #20 ) ;
#208 = VECTOR ( 'NONE', #93, 1000.000000000000000 ) ;
#209 = DIRECTION ( 'NONE',  ( 0.000000000000000000, 0.000000000000000000, 1.000000000000000000 ) ) ;
#210 = CIRCLE ( 'NONE', #344, 8.000000000000000000 ) ;
#211 = PRODUCT ( 'RFpiller', 'RFpiller', '', ( #111 ) ) ;
#212 = ORIENTED_EDGE ( 'NONE', *, *, #87, .T. ) ;
#213 =( GEOMETRIC_REPRESENTATION_CONTEXT ( 3 ) GLOBAL_UNCERTAINTY_ASSIGNED_CONTEXT ( ( #249 ) ) GLOBAL_UNIT_ASSIGNED_CONTEXT ( ( #203, #155, #105 ) ) REPRESENTATION_CONTEXT ( 'NONE', 'WORKASPACE' ) );
#214 = CARTESIAN_POINT ( 'NONE',  ( 160.0000000000000000, 9.797174393178825657E-16, -8.000000000000000000 ) ) ;
#215 = VECTOR ( 'NONE', #394, 1000.000000000000000 ) ;
#216 = EDGE_CURVE ( 'NONE', #523, #333, #324, .T. ) ;
#217 = ORIENTED_EDGE ( 'NONE', *, *, #529, .T. ) ;
#218 = DIRECTION ( 'NONE',  ( -1.000000000000000000, -0.000000000000000000, -0.000000000000000000 ) ) ;
#219 = PRODUCT_DEFINITION_SHAPE ( 'NONE', 'NONE',  #488 ) ;
#220 = CYLINDRICAL_SURFACE ( 'NONE', #36, 2.500000000000000000 ) ;
#221 = EDGE_LOOP ( 'NONE', ( #53, #224, #40, #88 ) ) ;
#222 = CARTESIAN_POINT ( 'NONE',  ( 160.0000000000000000, 0.000000000000000000, 8.000000000000000000 ) ) ;
#223 = FACE_OUTER_BOUND ( 'NONE', #15, .T. ) ;
#224 = ORIENTED_EDGE ( 'NONE', *, *, #371, .T. ) ;
#225 = DIRECTION ( 'NONE',  ( 0.000000000000000000, 0.000000000000000000, -1.000000000000000000 ) ) ;
#226 = ADVANCED_FACE ( 'NONE', ( #320 ), #436, .T. ) ;
#227 = CARTESIAN_POINT ( 'NONE',  ( 160.0000000000000000, -3.872983346207416133, -7.000000000000000000 ) ) ;
#228 = FACE_OUTER_BOUND ( 'NONE', #69, .T. ) ;
#229 = CIRCLE ( 'NONE', #532, 2.500000000000000000 ) ;
#230 = DIRECTION ( 'NONE',  ( 0.000000000000000000, 0.000000000000000000, 1.000000000000000000 ) ) ;
#231 = EDGE_LOOP ( 'NONE', ( #497, #397, #236, #512 ) ) ;
#232 = CARTESIAN_POINT ( 'NONE',  ( 172.0000000000000000, 3.061616997868383141E-16, -2.500000000000000000 ) ) ;
#233 = DIRECTION ( 'NONE',  ( 1.000000000000000000, 0.000000000000000000, 0.000000000000000000 ) ) ;
#234 = ORIENTED_EDGE ( 'NONE', *, *, #238, .T. ) ;
#235 = CARTESIAN_POINT ( 'NONE',  ( 130.0000000000000000, -3.872983346207417021, 7.000000000000000000 ) ) ;
#236 = ORIENTED_EDGE ( 'NONE', *, *, #206, .T. ) ;
#237 = DIRECTION ( 'NONE',  ( 0.000000000000000000, 0.000000000000000000, -1.000000000000000000 ) ) ;
#238 = EDGE_CURVE ( 'NONE', #337, #331, #189, .T. ) ;
#239 = PRESENTATION_LAYER_ASSIGNMENT (  '', '', ( #484 ) ) ;
#240 = VERTEX_POINT ( 'NONE', #70 ) ;
#241 = DIRECTION ( 'NONE',  ( 0.000000000000000000, 0.000000000000000000, 1.000000000000000000 ) ) ;
#242 = DIRECTION ( 'NONE',  ( 0.000000000000000000, 0.000000000000000000, 1.000000000000000000 ) ) ;
#243 = ORIENTED_EDGE ( 'NONE', *, *, #427, .F. ) ;
#244 = DIRECTION ( 'NONE',  ( 0.000000000000000000, 0.000000000000000000, -1.000000000000000000 ) ) ;
#245 = EDGE_CURVE ( 'NONE', #399, #366, #278, .T. ) ;
#246 = CARTESIAN_POINT ( 'NONE',  ( 0.000000000000000000, 0.000000000000000000, 0.000000000000000000 ) ) ;
#247 = CARTESIAN_POINT ( 'NONE',  ( -1.224646799147354440E-16, 3.061616997868380676E-16, -2.499999999999998224 ) ) ;
#248 = FACE_OUTER_BOUND ( 'NONE', #457, .T. ) ;
#249 = UNCERTAINTY_MEASURE_WITH_UNIT (LENGTH_MEASURE( 1.000000000000000082E-05 ), #203, 'distance_accuracy_value', 'NONE');
#250 = CARTESIAN_POINT ( 'NONE',  ( 160.0000000000000000, 9.797174393178825657E-16, -8.000000000000000000 ) ) ;
#251 = CARTESIAN_POINT ( 'NONE',  ( 160.0000000000000000, 3.061616997868383141E-16, -2.500000000000000000 ) ) ;
#252 = VECTOR ( 'NONE', #304, 1000.000000000000000 ) ;
#253 = MECHANICAL_DESIGN_GEOMETRIC_PRESENTATION_REPRESENTATION (  '', ( #484 ), #81 ) ;
#254 = VECTOR ( 'NONE', #358, 1000.000000000000000 ) ;
#255 = ADVANCED_FACE ( 'NONE', ( #188 ), #62, .T. ) ;
#256 = VERTEX_POINT ( 'NONE', #12 ) ;
#257 = CARTESIAN_POINT ( 'NONE',  ( 160.0000000000000000, 0.000000000000000000, 0.000000000000000000 ) ) ;
#258 = DIRECTION ( 'NONE',  ( -0.000000000000000000, 0.000000000000000000, -1.000000000000000000 ) ) ;
#259 = ORIENTED_EDGE ( 'NONE', *, *, #536, .F. ) ;
#260 = CARTESIAN_POINT ( 'NONE',  ( 0.000000000000000000, 0.000000000000000000, 8.000000000000000000 ) ) ;
#261 = DIRECTION ( 'NONE',  ( 0.000000000000000000, 0.000000000000000000, -1.000000000000000000 ) ) ;
#262 = EDGE_CURVE ( 'NONE', #435, #337, #473, .T. ) ;
#263 = DIRECTION ( 'NONE',  ( -1.000000000000000000, 0.000000000000000000, 0.000000000000000000 ) ) ;
#264 = ORIENTED_EDGE ( 'NONE', *, *, #245, .F. ) ;
#265 = SURFACE_STYLE_USAGE ( .BOTH. , #83 ) ;
#266 = CARTESIAN_POINT ( 'NONE',  ( 12.00000000000000000, 0.000000000000000000, 0.000000000000000000 ) ) ;
#267 = ORIENTED_EDGE ( 'NONE', *, *, #529, .F. ) ;
#268 = AXIS2_PLACEMENT_3D ( 'NONE', #463, #505, #514 ) ;
#269 = CARTESIAN_POINT ( 'NONE',  ( 130.0000000000000000, 0.000000000000000000, 0.000000000000000000 ) ) ;
#270 = ORIENTED_EDGE ( 'NONE', *, *, #521, .F. ) ;
#271 = DIRECTION ( 'NONE',  ( -1.000000000000000000, -0.000000000000000000, -0.000000000000000000 ) ) ;
#272 = DIRECTION ( 'NONE',  ( 0.000000000000000000, 0.000000000000000000, 1.000000000000000000 ) ) ;
#273 = EDGE_CURVE ( 'NONE', #92, #375, #79, .T. ) ;
#274 = ORIENTED_EDGE ( 'NONE', *, *, #413, .F. ) ;
#275 = CARTESIAN_POINT ( 'NONE',  ( 160.0000000000000000, 0.000000000000000000, 8.000000000000000000 ) ) ;
#276 = VERTEX_POINT ( 'NONE', #145 ) ;
#277 = CARTESIAN_POINT ( 'NONE',  ( 130.0000000000000000, 0.000000000000000000, 0.000000000000000000 ) ) ;
#278 = CIRCLE ( 'NONE', #340, 2.499999999999997780 ) ;
#279 = AXIS2_PLACEMENT_3D ( 'NONE', #89, #334, #225 ) ;
#280 = ORIENTED_EDGE ( 'NONE', *, *, #238, .F. ) ;
#281 = LINE ( 'NONE', #232, #65 ) ;
#282 = EDGE_CURVE ( 'NONE', #515, #443, #364, .T. ) ;
#283 = AXIS2_PLACEMENT_3D ( 'NONE', #246, #404, #209 ) ;
#284 = FILL_AREA_STYLE_COLOUR ( '', #336 ) ;
#285 = DIRECTION ( 'NONE',  ( 1.000000000000000000, 0.000000000000000000, 0.000000000000000000 ) ) ;
#286 = ADVANCED_FACE ( 'NONE', ( #524, #361 ), #520, .F. ) ;
#287 = CARTESIAN_POINT ( 'NONE',  ( 160.0000000000000000, 0.000000000000000000, 0.000000000000000000 ) ) ;
#288 = AXIS2_PLACEMENT_3D ( 'NONE', #296, #175, #143 ) ;
#289 = VECTOR ( 'NONE', #102, 1000.000000000000000 ) ;
#290 = ORIENTED_EDGE ( 'NONE', *, *, #442, .F. ) ;
#291 = EDGE_CURVE ( 'NONE', #333, #375, #351, .T. ) ;
#292 =( NAMED_UNIT ( * ) SI_UNIT ( $, .STERADIAN. ) SOLID_ANGLE_UNIT ( ) );
#293 =( NAMED_UNIT ( * ) SI_UNIT ( $, .STERADIAN. ) SOLID_ANGLE_UNIT ( ) );
#294 = ORIENTED_EDGE ( 'NONE', *, *, #498, .T. ) ;
#295 = DIRECTION ( 'NONE',  ( 0.000000000000000000, 0.000000000000000000, -1.000000000000000000 ) ) ;
#296 = CARTESIAN_POINT ( 'NONE',  ( 108.0000000000000142, 27.00000000000000355, -7.000000000000000000 ) ) ;
#297 = AXIS2_PLACEMENT_3D ( 'NONE', #85, #51, #510 ) ;
#298 = DIRECTION ( 'NONE',  ( -1.000000000000000000, 0.000000000000000000, 0.000000000000000000 ) ) ;
#299 = ORIENTED_EDGE ( 'NONE', *, *, #383, .F. ) ;
#300 = CARTESIAN_POINT ( 'NONE',  ( 172.0000000000000000, 3.061616997868383141E-16, -2.500000000000000000 ) ) ;
#301 = FACE_OUTER_BOUND ( 'NONE', #221, .T. ) ;
#302 = VERTEX_POINT ( 'NONE', #159 ) ;
#303 = FILL_AREA_STYLE ('',( #542 ) ) ;
#304 = DIRECTION ( 'NONE',  ( 0.000000000000000000, -1.000000000000000000, 0.000000000000000000 ) ) ;
#305 = ORIENTED_EDGE ( 'NONE', *, *, #206, .F. ) ;
#306 = CARTESIAN_POINT ( 'NONE',  ( 12.00000000000000000, 0.000000000000000000, 0.000000000000000000 ) ) ;
#307 = VECTOR ( 'NONE', #124, 1000.000000000000000 ) ;
#308 = EDGE_CURVE ( 'NONE', #302, #416, #101, .T. ) ;
#309 = DIRECTION ( 'NONE',  ( 0.000000000000000000, 0.000000000000000000, 1.000000000000000000 ) ) ;
#310 = VERTEX_POINT ( 'NONE', #516 ) ;
#311 = CARTESIAN_POINT ( 'NONE',  ( 108.0000000000000142, 9.797174393178825657E-16, -8.000000000000000000 ) ) ;
#312 = ORIENTED_EDGE ( 'NONE', *, *, #75, .F. ) ;
#313 = PRODUCT_DEFINITION_FORMATION_WITH_SPECIFIED_SOURCE ( 'ANY', '', #211, .NOT_KNOWN. ) ;
#314 = ADVANCED_FACE ( 'NONE', ( #67 ), #509, .F. ) ;
#315 = EDGE_LOOP ( 'NONE', ( #319, #525 ) ) ;
#316 = DIRECTION ( 'NONE',  ( 1.000000000000000000, 0.000000000000000000, -0.000000000000000000 ) ) ;
#317 = COLOUR_RGB ( '',0.000000000000000000, 1.000000000000000000, 1.000000000000000000 ) ;
#318 = VECTOR ( 'NONE', #533, 1000.000000000000000 ) ;
#319 = ORIENTED_EDGE ( 'NONE', *, *, #95, .F. ) ;
#320 = FACE_OUTER_BOUND ( 'NONE', #346, .T. ) ;
#321 =( NAMED_UNIT ( * ) PLANE_ANGLE_UNIT ( ) SI_UNIT ( $, .RADIAN. ) );
#322 = LINE ( 'NONE', #447, #456 ) ;
#323 = STYLED_ITEM ( 'NONE', ( #117 ), #17 ) ;
#324 = LINE ( 'NONE', #445, #307 ) ;
#325 = UNCERTAINTY_MEASURE_WITH_UNIT (LENGTH_MEASURE( 1.000000000000000082E-05 ), #452, 'distance_accuracy_value', 'NONE');
#326 = CARTESIAN_POINT ( 'NONE',  ( 0.000000000000000000, 0.000000000000000000, 0.000000000000000000 ) ) ;
#327 = EDGE_CURVE ( 'NONE', #256, #342, #210, .T. ) ;
#328 = PLANE ( 'NONE',  #55 ) ;
#329 = PRODUCT_RELATED_PRODUCT_CATEGORY ( 'part', '', ( #211 ) ) ;
#330 = AXIS2_PLACEMENT_3D ( 'NONE', #269, #263, #230 ) ;
#331 = VERTEX_POINT ( 'NONE', #400 ) ;
#332 = DIRECTION ( 'NONE',  ( 0.000000000000000000, -1.000000000000000000, 0.000000000000000000 ) ) ;
#333 = VERTEX_POINT ( 'NONE', #110 ) ;
#334 = DIRECTION ( 'NONE',  ( 1.000000000000000000, 0.000000000000000000, 0.000000000000000000 ) ) ;
#335 = PLANE ( 'NONE',  #156 ) ;
#336 = COLOUR_RGB ( '',0.8980392156862745390, 0.9176470588235293713, 0.9294117647058823817 ) ;
#337 = VERTEX_POINT ( 'NONE', #235 ) ;
#338 = DIRECTION ( 'NONE',  ( -1.000000000000000000, -0.000000000000000000, -0.000000000000000000 ) ) ;
#339 = DIRECTION ( 'NONE',  ( -1.000000000000000000, -0.000000000000000000, -0.000000000000000000 ) ) ;
#340 = AXIS2_PLACEMENT_3D ( 'NONE', #64, #531, #434 ) ;
#341 = AXIS2_PLACEMENT_3D ( 'NONE', #257, #44, #138 ) ;
#342 = VERTEX_POINT ( 'NONE', #311 ) ;
#343 = DIRECTION ( 'NONE',  ( 1.000000000000000000, 0.000000000000000000, 0.000000000000000000 ) ) ;
#344 = AXIS2_PLACEMENT_3D ( 'NONE', #154, #316, #487 ) ;
#345 = PLANE ( 'NONE',  #28 ) ;
#346 = EDGE_LOOP ( 'NONE', ( #508, #25, #153, #217 ) ) ;
#347 = CARTESIAN_POINT ( 'NONE',  ( 12.00000000000000000, 0.000000000000000000, 2.499999999999996447 ) ) ;
#348 = CARTESIAN_POINT ( 'NONE',  ( 130.0000000000000000, 27.00000000000000355, 7.000000000000000000 ) ) ;
#349 = PRESENTATION_LAYER_ASSIGNMENT (  '', '', ( #323 ) ) ;
#350 = VERTEX_POINT ( 'NONE', #113 ) ;
#351 = LINE ( 'NONE', #526, #485 ) ;
#352 = EDGE_CURVE ( 'NONE', #482, #240, #160, .T. ) ;
#353 = DIRECTION ( 'NONE',  ( 0.000000000000000000, 0.000000000000000000, -1.000000000000000000 ) ) ;
#354 = ORIENTED_EDGE ( 'NONE', *, *, #291, .F. ) ;
#355 = CARTESIAN_POINT ( 'NONE',  ( 0.000000000000000000, 0.000000000000000000, 0.000000000000000000 ) ) ;
#356 = AXIS2_PLACEMENT_3D ( 'NONE', #266, #471, #96 ) ;
#357 = ORIENTED_EDGE ( 'NONE', *, *, #308, .F. ) ;
#358 = DIRECTION ( 'NONE',  ( 1.000000000000000000, 0.000000000000000000, 0.000000000000000000 ) ) ;
#359 = CARTESIAN_POINT ( 'NONE',  ( 160.0000000000000000, 0.000000000000000000, 0.000000000000000000 ) ) ;
#360 = ORIENTED_EDGE ( 'NONE', *, *, #200, .F. ) ;
#361 = FACE_OUTER_BOUND ( 'NONE', #315, .T. ) ;
#362 = CARTESIAN_POINT ( 'NONE',  ( 172.0000000000000000, 0.000000000000000000, 0.000000000000000000 ) ) ;
#363 = CIRCLE ( 'NONE', #268, 2.500000000000000000 ) ;
#364 = CIRCLE ( 'NONE', #112, 2.499999999999996447 ) ;
#365 = DIRECTION ( 'NONE',  ( 1.000000000000000000, 0.000000000000000000, 0.000000000000000000 ) ) ;
#366 = VERTEX_POINT ( 'NONE', #98 ) ;
#367 = DIRECTION ( 'NONE',  ( 1.000000000000000000, 0.000000000000000000, -0.000000000000000000 ) ) ;
#368 = APPLICATION_PROTOCOL_DEFINITION ( 'draft international standard', 'automotive_design', 1998, #197 ) ;
#369 = DIRECTION ( 'NONE',  ( -1.000000000000000000, -0.000000000000000000, -0.000000000000000000 ) ) ;
#370 = CARTESIAN_POINT ( 'NONE',  ( 108.0000000000000142, 27.00000000000000355, -12.00000000000000178 ) ) ;
#371 = EDGE_CURVE ( 'NONE', #482, #47, #281, .T. ) ;
#372 = VECTOR ( 'NONE', #148, 1000.000000000000000 ) ;
#373 = DIRECTION ( 'NONE',  ( 1.000000000000000000, 0.000000000000000000, 0.000000000000000000 ) ) ;
#374 = EDGE_CURVE ( 'NONE', #240, #431, #202, .T. ) ;
#375 = VERTEX_POINT ( 'NONE', #114 ) ;
#376 = LINE ( 'NONE', #540, #199 ) ;
#377 = MECHANICAL_DESIGN_GEOMETRIC_PRESENTATION_REPRESENTATION (  '', ( #207 ), #481 ) ;
#378 = ORIENTED_EDGE ( 'NONE', *, *, #130, .F. ) ;
#379 = CARTESIAN_POINT ( 'NONE',  ( 0.000000000000000000, 0.000000000000000000, 0.000000000000000000 ) ) ;
#380 = CARTESIAN_POINT ( 'NONE',  ( -1.224646799147354440E-16, 0.000000000000000000, 0.000000000000000000 ) ) ;
#381 = ORIENTED_EDGE ( 'NONE', *, *, #103, .T. ) ;
#382 = CARTESIAN_POINT ( 'NONE',  ( 160.0000000000000000, 0.000000000000000000, 2.500000000000000000 ) ) ;
#383 = EDGE_CURVE ( 'NONE', #534, #302, #9, .T. ) ;
#384 = FACE_OUTER_BOUND ( 'NONE', #182, .T. ) ;
#385 = VERTEX_POINT ( 'NONE', #162 ) ;
#386 = FACE_BOUND ( 'NONE', #479, .T. ) ;
#387 = DIRECTION ( 'NONE',  ( -1.000000000000000000, 0.000000000000000000, 0.000000000000000000 ) ) ;
#388 = CIRCLE ( 'NONE', #45, 8.000000000000000000 ) ;
#389 = CIRCLE ( 'NONE', #157, 8.000000000000000000 ) ;
#390 = AXIS2_PLACEMENT_3D ( 'NONE', #306, #271, #241 ) ;
#391 = CARTESIAN_POINT ( 'NONE',  ( 130.0000000000000000, 0.000000000000000000, 0.000000000000000000 ) ) ;
#392 = ORIENTED_EDGE ( 'NONE', *, *, #115, .F. ) ;
#393 = DIRECTION ( 'NONE',  ( -1.000000000000000000, -0.000000000000000000, -0.000000000000000000 ) ) ;
#394 = DIRECTION ( 'NONE',  ( -1.000000000000000000, -0.000000000000000000, -0.000000000000000000 ) ) ;
#395 = ORIENTED_EDGE ( 'NONE', *, *, #1, .F. ) ;
#396 = DIRECTION ( 'NONE',  ( -1.000000000000000000, 0.000000000000000000, 0.000000000000000000 ) ) ;
#397 = ORIENTED_EDGE ( 'NONE', *, *, #165, .F. ) ;
#398 = DIRECTION ( 'NONE',  ( 0.000000000000000000, 0.000000000000000000, 1.000000000000000000 ) ) ;
#399 = VERTEX_POINT ( 'NONE', #247 ) ;
#400 = CARTESIAN_POINT ( 'NONE',  ( 130.0000000000000000, 0.000000000000000000, 8.000000000000000000 ) ) ;
#401 = EDGE_LOOP ( 'NONE', ( #433, #100, #465 ) ) ;
#402 = DIRECTION ( 'NONE',  ( -0.000000000000000000, 0.000000000000000000, 1.000000000000000000 ) ) ;
#403 = APPLICATION_PROTOCOL_DEFINITION ( 'draft international standard', 'automotive_design', 1998, #128 ) ;
#404 = DIRECTION ( 'NONE',  ( -1.000000000000000000, -0.000000000000000000, -0.000000000000000000 ) ) ;
#405 = CARTESIAN_POINT ( 'NONE',  ( 108.0000000000000142, 0.000000000000000000, 0.000000000000000000 ) ) ;
#406 = VECTOR ( 'NONE', #21, 1000.000000000000000 ) ;
#407 = CYLINDRICAL_SURFACE ( 'NONE', #136, 8.000000000000000000 ) ;
#408 = EDGE_CURVE ( 'NONE', #126, #443, #322, .T. ) ;
#409 = ADVANCED_BREP_SHAPE_REPRESENTATION ( 'RFpiller', ( #20, #151 ), #213 ) ;
#410 = SURFACE_STYLE_USAGE ( .BOTH. , #74 ) ;
#411 = FACE_OUTER_BOUND ( 'NONE', #190, .T. ) ;
#412 = CIRCLE ( 'NONE', #73, 8.000000000000000000 ) ;
#413 = EDGE_CURVE ( 'NONE', #385, #331, #142, .T. ) ;
#414 = VECTOR ( 'NONE', #218, 1000.000000000000000 ) ;
#415 = AXIS2_PLACEMENT_3D ( 'NONE', #355, #196, #244 ) ;
#416 = VERTEX_POINT ( 'NONE', #260 ) ;
#417 = FACE_OUTER_BOUND ( 'NONE', #3, .T. ) ;
#418 = ORIENTED_EDGE ( 'NONE', *, *, #308, .T. ) ;
#419 = PLANE ( 'NONE',  #7 ) ;
#420 = CYLINDRICAL_SURFACE ( 'NONE', #283, 2.499999999999996891 ) ;
#421 = ADVANCED_FACE ( 'NONE', ( #228 ), #170, .F. ) ;
#422 = CARTESIAN_POINT ( 'NONE',  ( 108.0000000000000142, -3.872983346207416133, 7.000000000000000000 ) ) ;
#423 = DIRECTION ( 'NONE',  ( 0.000000000000000000, -1.000000000000000000, 0.000000000000000000 ) ) ;
#424 = FACE_OUTER_BOUND ( 'NONE', #439, .T. ) ;
#425 = EDGE_LOOP ( 'NONE', ( #234, #193, #164 ) ) ;
#426 = LINE ( 'NONE', #214, #414 ) ;
#427 = EDGE_CURVE ( 'NONE', #47, #431, #441, .T. ) ;
#428 = FACE_OUTER_BOUND ( 'NONE', #425, .T. ) ;
#429 = AXIS2_PLACEMENT_3D ( 'NONE', #391, #387, #272 ) ;
#430 = VECTOR ( 'NONE', #338, 1000.000000000000000 ) ;
#431 = VERTEX_POINT ( 'NONE', #382 ) ;
#432 = LINE ( 'NONE', #179, #406 ) ;
#433 = ORIENTED_EDGE ( 'NONE', *, *, #408, .F. ) ;
#434 = DIRECTION ( 'NONE',  ( 0.000000000000000000, 0.000000000000000000, 1.000000000000000000 ) ) ;
#435 = VERTEX_POINT ( 'NONE', #422 ) ;
#436 = CYLINDRICAL_SURFACE ( 'NONE', #132, 2.500000000000000000 ) ;
#437 = CARTESIAN_POINT ( 'NONE',  ( 12.00000000000000000, 3.061616997868378704E-16, -2.499999999999996447 ) ) ;
#438 = AXIS2_PLACEMENT_3D ( 'NONE', #277, #480, #398 ) ;
#439 = EDGE_LOOP ( 'NONE', ( #499, #104, #544 ) ) ;
#440 = DIRECTION ( 'NONE',  ( 0.000000000000000000, 0.000000000000000000, 1.000000000000000000 ) ) ;
#441 = CIRCLE ( 'NONE', #279, 2.500000000000000000 ) ;
#442 = EDGE_CURVE ( 'NONE', #350, #534, #500, .T. ) ;
#443 = VERTEX_POINT ( 'NONE', #347 ) ;
#444 = CARTESIAN_POINT ( 'NONE',  ( 12.00000000000000000, 0.000000000000000000, 0.000000000000000000 ) ) ;
#445 = CARTESIAN_POINT ( 'NONE',  ( 160.0000000000000000, 3.872983346207416133, -7.000000000000000000 ) ) ;
#446 = FILL_AREA_STYLE ('',( #161 ) ) ;
#447 = CARTESIAN_POINT ( 'NONE',  ( 12.00000000000000000, 0.000000000000000000, 2.499999999999996447 ) ) ;
#448 = ADVANCED_FACE ( 'NONE', ( #386, #417 ), #4, .T. ) ;
#449 = CARTESIAN_POINT ( 'NONE',  ( 160.0000000000000000, 0.000000000000000000, 0.000000000000000000 ) ) ;
#450 = AXIS2_PLACEMENT_3D ( 'NONE', #380, #517, #139 ) ;
#451 = UNCERTAINTY_MEASURE_WITH_UNIT (LENGTH_MEASURE( 1.000000000000000082E-05 ), #458, 'distance_accuracy_value', 'NONE');
#452 =( LENGTH_UNIT ( ) NAMED_UNIT ( * ) SI_UNIT ( .MILLI., .METRE. ) );
#453 = SHAPE_DEFINITION_REPRESENTATION ( #219, #409 ) ;
#454 = DIRECTION ( 'NONE',  ( -1.000000000000000000, -0.000000000000000000, -0.000000000000000000 ) ) ;
#455 = AXIS2_PLACEMENT_3D ( 'NONE', #501, #129, #49 ) ;
#456 = VECTOR ( 'NONE', #72, 1000.000000000000000 ) ;
#457 = EDGE_LOOP ( 'NONE', ( #50, #147, #360, #84, #63, #294, #519, #357, #299, #290, #144, #274 ) ) ;
#458 =( LENGTH_UNIT ( ) NAMED_UNIT ( * ) SI_UNIT ( .MILLI., .METRE. ) );
#459 = MECHANICAL_DESIGN_GEOMETRIC_PRESENTATION_REPRESENTATION (  '', ( #323 ), #14 ) ;
#460 = EDGE_CURVE ( 'NONE', #276, #385, #37, .T. ) ;
#461 = ORIENTED_EDGE ( 'NONE', *, *, #245, .T. ) ;
#462 = DIRECTION ( 'NONE',  ( 0.000000000000000000, 0.000000000000000000, -1.000000000000000000 ) ) ;
#463 = CARTESIAN_POINT ( 'NONE',  ( 172.0000000000000000, 0.000000000000000000, 0.000000000000000000 ) ) ;
#464 = CARTESIAN_POINT ( 'NONE',  ( 108.0000000000000142, 27.00000000000000355, 7.000000000000000000 ) ) ;
#465 = ORIENTED_EDGE ( 'NONE', *, *, #282, .T. ) ;
#466 = ADVANCED_FACE ( 'NONE', ( #174 ), #419, .T. ) ;
#467 = DIRECTION ( 'NONE',  ( 1.000000000000000000, 0.000000000000000000, 0.000000000000000000 ) ) ;
#468 = PLANE ( 'NONE',  #288 ) ;
#469 = ORIENTED_EDGE ( 'NONE', *, *, #352, .T. ) ;
#470 =( NAMED_UNIT ( * ) PLANE_ANGLE_UNIT ( ) SI_UNIT ( $, .RADIAN. ) );
#471 = DIRECTION ( 'NONE',  ( -1.000000000000000000, -0.000000000000000000, -0.000000000000000000 ) ) ;
#472 = ORIENTED_EDGE ( 'NONE', *, *, #291, .T. ) ;
#473 = LINE ( 'NONE', #476, #254 ) ;
#474 = LINE ( 'NONE', #99, #120 ) ;
#475 = ORIENTED_EDGE ( 'NONE', *, *, #216, .T. ) ;
#476 = CARTESIAN_POINT ( 'NONE',  ( 160.0000000000000000, -3.872983346207416133, 7.000000000000000000 ) ) ;
#477 = EDGE_CURVE ( 'NONE', #342, #523, #107, .T. ) ;
#478 = DIRECTION ( 'NONE',  ( 0.000000000000000000, 0.000000000000000000, -1.000000000000000000 ) ) ;
#479 = EDGE_LOOP ( 'NONE', ( #267, #243 ) ) ;
#480 = DIRECTION ( 'NONE',  ( -1.000000000000000000, 0.000000000000000000, 0.000000000000000000 ) ) ;
#481 =( GEOMETRIC_REPRESENTATION_CONTEXT ( 3 ) GLOBAL_UNCERTAINTY_ASSIGNED_CONTEXT ( ( #204 ) ) GLOBAL_UNIT_ASSIGNED_CONTEXT ( ( #33, #321, #35 ) ) REPRESENTATION_CONTEXT ( 'NONE', 'WORKASPACE' ) );
#482 = VERTEX_POINT ( 'NONE', #300 ) ;
#483 = CARTESIAN_POINT ( 'NONE',  ( 108.0000000000000142, 27.00000000000000355, 7.000000000000000000 ) ) ;
#484 = STYLED_ITEM ( 'NONE', ( #168 ), #421 ) ;
#485 = VECTOR ( 'NONE', #185, 1000.000000000000000 ) ;
#486 = DIRECTION ( 'NONE',  ( -1.000000000000000000, -0.000000000000000000, -0.000000000000000000 ) ) ;
#487 = DIRECTION ( 'NONE',  ( 0.000000000000000000, 0.000000000000000000, -1.000000000000000000 ) ) ;
#488 = PRODUCT_DEFINITION ( 'UNKNOWN', '', #313, #32 ) ;
#489 = CARTESIAN_POINT ( 'NONE',  ( 172.0000000000000000, 0.000000000000000000, 2.500000000000000000 ) ) ;
#490 = CLOSED_SHELL ( 'NONE', ( #421, #314, #181, #538, #39, #448, #286, #226, #466, #192, #17, #171, #80, #255, #34, #68, #60 ) ) ;
#491 = FACE_OUTER_BOUND ( 'NONE', #231, .T. ) ;
#492 = CIRCLE ( 'NONE', #429, 8.000000000000000000 ) ;
#493 = FACE_OUTER_BOUND ( 'NONE', #57, .T. ) ;
#494 = SURFACE_STYLE_USAGE ( .BOTH. , #158 ) ;
#495 = EDGE_LOOP ( 'NONE', ( #43, #82, #137, #270 ) ) ;
#496 = AXIS2_PLACEMENT_3D ( 'NONE', #13, #233, #353 ) ;
#497 = ORIENTED_EDGE ( 'NONE', *, *, #87, .F. ) ;
#498 = EDGE_CURVE ( 'NONE', #342, #310, #426, .T. ) ;
#499 = ORIENTED_EDGE ( 'NONE', *, *, #383, .T. ) ;
#500 = LINE ( 'NONE', #133, #208 ) ;
#501 = CARTESIAN_POINT ( 'NONE',  ( 12.00000000000000000, 0.000000000000000000, 0.000000000000000000 ) ) ;
#502 = ORIENTED_EDGE ( 'NONE', *, *, #24, .T. ) ;
#503 = CARTESIAN_POINT ( 'NONE',  ( 172.0000000000000000, 0.000000000000000000, 0.000000000000000000 ) ) ;
#504 = AXIS2_PLACEMENT_3D ( 'NONE', #287, #454, #537 ) ;
#505 = DIRECTION ( 'NONE',  ( 1.000000000000000000, 0.000000000000000000, 0.000000000000000000 ) ) ;
#506 = AXIS2_PLACEMENT_3D ( 'NONE', #177, #343, #545 ) ;
#507 = EDGE_CURVE ( 'NONE', #310, #416, #389, .T. ) ;
#508 = ORIENTED_EDGE ( 'NONE', *, *, #371, .F. ) ;
#509 = CONICAL_SURFACE ( 'NONE', #390, 2.499999999999996447, 1.029744258676653423 ) ;
#510 = DIRECTION ( 'NONE',  ( 0.000000000000000000, 0.000000000000000000, 1.000000000000000000 ) ) ;
#511 = CARTESIAN_POINT ( 'NONE',  ( 108.0000000000000142, 27.00000000000000355, 7.000000000000000000 ) ) ;
#512 = ORIENTED_EDGE ( 'NONE', *, *, #75, .T. ) ;
#513 = SURFACE_STYLE_FILL_AREA ( #303 ) ;
#514 = DIRECTION ( 'NONE',  ( 0.000000000000000000, 0.000000000000000000, -1.000000000000000000 ) ) ;
#515 = VERTEX_POINT ( 'NONE', #54 ) ;
#516 = CARTESIAN_POINT ( 'NONE',  ( 0.000000000000000000, 9.797174393178825657E-16, -8.000000000000000000 ) ) ;
#517 = DIRECTION ( 'NONE',  ( -1.000000000000000000, -0.000000000000000000, -0.000000000000000000 ) ) ;
#518 = VECTOR ( 'NONE', #339, 1000.000000000000000 ) ;
#519 = ORIENTED_EDGE ( 'NONE', *, *, #507, .T. ) ;
#520 = PLANE ( 'NONE',  #415 ) ;
#521 = EDGE_CURVE ( 'NONE', #350, #337, #376, .T. ) ;
#522 = CARTESIAN_POINT ( 'NONE',  ( 160.0000000000000000, 0.000000000000000000, 0.000000000000000000 ) ) ;
#523 = VERTEX_POINT ( 'NONE', #27 ) ;
#524 = FACE_BOUND ( 'NONE', #61, .T. ) ;
#525 = ORIENTED_EDGE ( 'NONE', *, *, #507, .F. ) ;
#526 = CARTESIAN_POINT ( 'NONE',  ( 130.0000000000000000, 27.00000000000000355, -7.000000000000000000 ) ) ;
#527 = DIRECTION ( 'NONE',  ( 0.000000000000000000, 0.000000000000000000, 1.000000000000000000 ) ) ;
#528 = CONICAL_SURFACE ( 'NONE', #356, 2.499999999999996447, 1.029744258676653423 ) ;
#529 = EDGE_CURVE ( 'NONE', #431, #47, #229, .T. ) ;
#530 = CYLINDRICAL_SURFACE ( 'NONE', #504, 8.000000000000000000 ) ;
#531 = DIRECTION ( 'NONE',  ( -1.000000000000000000, -0.000000000000000000, -0.000000000000000000 ) ) ;
#532 = AXIS2_PLACEMENT_3D ( 'NONE', #522, #365, #478 ) ;
#533 = DIRECTION ( 'NONE',  ( -1.000000000000000000, -0.000000000000000000, -0.000000000000000000 ) ) ;
#534 = VERTEX_POINT ( 'NONE', #152 ) ;
#535 = SURFACE_STYLE_FILL_AREA ( #29 ) ;
#536 = EDGE_CURVE ( 'NONE', #126, #515, #108, .T. ) ;
#537 = DIRECTION ( 'NONE',  ( 0.000000000000000000, 0.000000000000000000, 1.000000000000000000 ) ) ;
#538 = ADVANCED_FACE ( 'NONE', ( #248 ), #407, .T. ) ;
#539 = ORIENTED_EDGE ( 'NONE', *, *, #477, .T. ) ;
#540 = CARTESIAN_POINT ( 'NONE',  ( 130.0000000000000000, 27.00000000000000355, 7.000000000000000000 ) ) ;
#541 = ORIENTED_EDGE ( 'NONE', *, *, #408, .T. ) ;
#542 = FILL_AREA_STYLE_COLOUR ( '', #178 ) ;
#543 = DIRECTION ( 'NONE',  ( 0.000000000000000000, 0.000000000000000000, 1.000000000000000000 ) ) ;
#544 = ORIENTED_EDGE ( 'NONE', *, *, #119, .F. ) ;
#545 = DIRECTION ( 'NONE',  ( 0.000000000000000000, 0.000000000000000000, -1.000000000000000000 ) ) ;
ENDSEC;
END-ISO-10303-21;
